<?xml version="1.0" standalone="no"?>
<!DOCTYPE svg PUBLIC "-//W3C//DTD SVG 20010904//EN"
 "http://www.w3.org/TR/2001/REC-SVG-20010904/DTD/svg10.dtd">
<svg version="1.0" xmlns="http://www.w3.org/2000/svg"
 width="800.000000pt" height="533.000000pt" viewBox="0 0 800.000000 533.000000"
 preserveAspectRatio="xMidYMid meet">
<metadata>
Created by potrace 1.15, written by Peter Selinger 2001-2017
</metadata>
<g transform="translate(0.000000,533.000000) scale(0.100000,-0.100000)"
fill="#000000" stroke="none">
<path d="M3594 4675 c-11 -17 -16 -46 -15 -94 0 -39 -3 -72 -8 -75 -4 -3 -15
19 -24 48 -10 29 -26 61 -37 71 -19 17 -20 17 -29 -6 -5 -13 -5 -45 -1 -71 8
-55 -1 -61 -27 -18 -9 17 -23 30 -30 30 -18 0 -33 -42 -26 -69 5 -19 3 -21
-20 -16 -30 8 -47 -16 -47 -64 0 -26 -4 -31 -24 -31 -27 0 -56 -33 -56 -62 0
-10 -11 -23 -24 -28 -22 -8 -43 -43 -38 -63 2 -5 -9 -18 -23 -29 -16 -13 -25
-29 -25 -49 0 -16 -4 -29 -9 -29 -10 0 -27 -39 -23 -54 2 -4 -3 -14 -9 -22 -6
-8 -13 -35 -16 -60 -2 -26 -12 -59 -23 -74 -11 -16 -20 -33 -20 -38 0 -6 -9
-27 -21 -46 -17 -30 -28 -36 -67 -42 -64 -9 -82 -20 -82 -50 0 -19 -4 -25 -15
-20 -8 3 -18 -2 -23 -10 -18 -32 -140 5 -129 40 5 18 69 46 105 46 40 0 41 16
1 38 -105 58 -141 108 -183 255 -9 32 -21 55 -26 52 -15 -9 -12 -46 9 -108 11
-32 16 -57 11 -57 -13 0 -43 42 -64 89 -11 22 -23 41 -28 41 -19 0 -6 -49 23
-89 22 -29 28 -46 21 -53 -12 -12 -58 10 -87 42 -11 12 -29 26 -40 32 -11 5
-3 -7 18 -26 20 -20 37 -40 37 -45 0 -4 10 -13 23 -19 l22 -11 -25 0 c-14 -1
-34 5 -45 12 -11 8 -33 22 -50 32 l-30 18 30 -26 c37 -31 28 -45 -16 -23 -42
21 -46 20 -23 -5 l19 -21 -32 7 c-37 7 -45 -9 -16 -31 17 -13 17 -14 -4 -20
-24 -7 -28 -15 -15 -28 4 -4 7 -18 7 -29 0 -15 7 -23 23 -25 21 -3 32 -22 12
-22 -5 0 -10 -7 -10 -15 0 -8 7 -15 15 -15 8 0 19 -9 25 -21 9 -16 18 -19 37
-14 23 5 25 4 20 -16 -5 -17 2 -30 24 -51 30 -29 181 -108 206 -108 8 0 26 -9
41 -19 15 -11 56 -27 92 -36 36 -9 72 -19 80 -23 8 -3 21 -4 28 -3 7 1 15 -5
19 -14 4 -11 -11 -33 -46 -69 -28 -28 -51 -57 -51 -63 0 -13 61 16 101 48 15
12 37 19 50 17 21 -3 18 -6 -26 -32 -27 -16 -75 -50 -106 -75 -31 -25 -70 -54
-87 -63 -27 -14 -80 -93 -70 -104 2 -2 26 16 54 40 34 30 62 45 92 50 34 5 42
3 42 -9 0 -8 -5 -15 -11 -15 -12 0 -87 -55 -105 -77 -7 -8 -12 -32 -12 -54
l-1 -40 25 16 c14 9 31 14 38 12 16 -6 65 23 140 83 41 33 56 52 56 70 0 37 9
45 75 69 132 49 303 159 424 273 46 44 108 97 137 119 38 28 73 69 121 142 51
76 77 107 105 120 37 18 313 67 381 67 26 0 37 4 37 15 0 8 -8 15 -19 15 -10
0 -46 18 -80 41 -72 48 -95 49 -226 4 -134 -45 -180 -72 -242 -142 -31 -36
-69 -70 -85 -75 -44 -15 -33 -26 32 -34 33 -4 63 -11 67 -17 3 -6 -9 -24 -28
-39 -19 -16 -33 -33 -32 -38 3 -9 -36 -39 -67 -54 -25 -11 -57 -31 -73 -44
-15 -13 -59 -3 -71 16 -12 20 14 78 44 95 16 10 30 25 30 33 0 8 6 14 13 14 6
0 -10 14 -37 31 l-49 31 6 68 c7 86 26 131 74 175 35 32 38 39 38 87 0 29 4
59 8 66 20 30 56 156 62 214 11 105 -24 258 -62 272 -7 3 -20 -6 -29 -19z"/>
<path d="M969 4030 c-4 -52 30 -153 71 -211 12 -16 20 -32 17 -35 -6 -6 -81
90 -130 168 -43 67 -57 78 -57 45 0 -31 41 -108 91 -170 21 -27 39 -54 39 -60
0 -14 -41 22 -131 117 -43 45 -80 78 -84 74 -12 -11 30 -91 78 -147 26 -30 45
-56 42 -59 -2 -2 -40 21 -84 53 -61 42 -81 52 -81 39 0 -24 37 -80 68 -103 35
-26 23 -37 -18 -16 -18 9 -34 15 -36 12 -8 -8 13 -52 35 -71 19 -17 19 -20 5
-31 -15 -10 -15 -14 0 -44 10 -17 24 -35 32 -38 11 -4 12 -9 4 -18 -14 -17 11
-69 36 -79 13 -5 14 -9 5 -20 -9 -11 -6 -21 14 -45 15 -17 24 -35 21 -40 -3
-4 5 -20 18 -34 14 -15 26 -37 28 -49 3 -22 18 -30 83 -43 l30 -7 -24 -17
c-24 -19 -22 -41 5 -41 17 0 18 -12 2 -29 -11 -10 -9 -15 6 -27 11 -7 20 -25
21 -39 0 -15 7 -30 14 -34 8 -5 11 -13 8 -18 -4 -6 0 -19 8 -29 8 -10 15 -27
15 -36 0 -9 6 -21 13 -25 7 -4 21 -25 32 -45 10 -20 27 -39 36 -41 12 -3 16
-11 13 -24 -3 -11 2 -25 10 -32 9 -8 16 -19 16 -25 0 -24 44 -56 68 -49 20 5
22 2 22 -36 0 -22 5 -41 10 -41 6 0 14 -8 17 -17 11 -31 95 -133 109 -133 10
0 12 -9 8 -30 -5 -25 -2 -31 20 -41 14 -7 26 -16 26 -20 0 -4 -26 -24 -57 -44
-69 -45 -134 -105 -127 -117 3 -5 17 1 31 12 14 11 35 20 47 20 11 0 44 11 71
25 28 13 56 25 63 25 13 0 57 28 97 61 27 23 57 30 74 20 11 -7 7 -17 -23 -44
-36 -34 -116 -83 -116 -71 0 3 -13 -4 -30 -16 -16 -12 -34 -19 -38 -16 -5 3
-34 -1 -65 -9 -32 -8 -82 -21 -112 -29 -47 -11 -54 -11 -44 0 15 18 11 18 -93
-7 -48 -12 -85 -26 -82 -30 2 -5 -9 -15 -26 -24 -25 -13 -29 -19 -20 -30 8
-10 7 -16 -7 -24 -17 -9 -16 -10 6 -19 16 -6 20 -11 13 -16 -21 -13 -13 -26
15 -26 18 0 40 13 65 37 21 20 38 32 38 25 0 -7 -9 -20 -21 -30 -11 -9 -25
-25 -30 -34 -9 -16 -5 -17 38 -11 l48 6 -24 -27 c-31 -33 -26 -32 95 3 55 16
111 31 125 35 15 3 38 21 53 41 24 31 29 33 54 24 46 -18 247 2 327 33 181 69
297 136 465 267 52 41 120 85 150 97 31 12 101 53 155 90 140 93 184 111 338
134 200 30 297 42 346 44 46 1 67 21 34 32 -52 17 -80 31 -134 66 -51 33 -68
38 -116 38 -47 0 -68 -7 -129 -40 -40 -22 -124 -59 -186 -81 -62 -23 -135 -50
-163 -60 -27 -10 -61 -19 -75 -19 -14 0 -32 -5 -40 -10 -12 -8 -11 -10 7 -10
32 0 67 -18 82 -42 11 -18 11 -23 -3 -34 -10 -7 -17 -16 -17 -21 -1 -4 -3 -10
-6 -13 -4 -3 -3 0 0 6 9 15 -19 39 -28 24 -3 -5 -4 -14 -1 -19 3 -5 -3 -11
-13 -14 -12 -3 -22 1 -25 9 -3 8 -11 13 -18 12 -8 -2 -12 6 -10 22 2 22 1 23
-10 7 -12 -15 -13 -13 -16 19 -2 28 1 34 10 27 7 -6 22 -13 32 -17 16 -6 15
-3 -5 16 -26 25 -121 54 -139 43 -5 -3 -10 -2 -10 4 0 5 -24 15 -54 21 -51 10
-54 13 -81 67 -49 101 -76 194 -85 298 -5 55 -16 123 -24 151 -14 45 -65 130
-87 144 -20 14 -140 294 -164 385 -15 55 -32 109 -37 119 -10 19 -11 19 -24 1
-18 -24 -17 -58 1 -118 20 -68 2 -49 -25 25 -29 79 -37 89 -56 64 -22 -30 -17
-71 18 -141 32 -67 31 -98 -3 -55 -10 14 -36 53 -56 88 -37 62 -56 75 -67 46
-12 -31 -5 -68 20 -111 14 -25 23 -47 20 -51 -4 -3 -28 15 -54 40 -26 25 -53
44 -59 41 -20 -7 -15 -64 7 -101 29 -48 25 -53 -25 -31 -25 11 -50 17 -55 14
-13 -8 -13 -41 0 -65 8 -15 6 -21 -9 -29 -23 -13 -33 -45 -18 -60 6 -6 8 -13
6 -16 -10 -9 -289 275 -323 328 -18 28 -52 99 -75 157 -44 107 -60 136 -62
110z m760 -1793 c17 -7 28 -17 24 -22 -5 -4 0 -5 11 -1 18 6 46 -8 46 -24 0
-4 -11 -12 -25 -18 -25 -12 -83 1 -96 21 -4 5 -15 0 -25 -12 -10 -11 -28 -21
-41 -21 -12 0 -25 -4 -28 -10 -9 -15 -45 -12 -45 4 0 7 19 32 42 55 47 45 80
52 137 28z"/>
<path d="M4079 3251 c-24 -17 -129 -115 -232 -220 -180 -182 -188 -188 -202
-168 -14 20 -14 20 -25 -7 -5 -15 -10 -37 -10 -49 0 -26 -15 -53 -23 -40 -3 4
-8 25 -12 46 -9 45 -25 44 -42 -4 -14 -41 -17 -206 -3 -211 14 -4 25 -68 12
-68 -5 0 -27 26 -48 58 -53 82 -94 132 -106 132 -20 0 -2 -122 27 -183 14 -33
24 -61 22 -64 -3 -2 -29 11 -59 30 -29 19 -63 38 -75 42 -20 6 -22 4 -16 -32
3 -21 12 -51 20 -66 13 -26 13 -28 -4 -27 -42 5 -44 1 -41 -52 3 -45 0 -55
-17 -64 -16 -8 -20 -19 -18 -57 2 -26 -1 -47 -6 -47 -14 0 -22 -29 -15 -56 4
-14 18 -31 33 -39 l26 -14 -32 -1 c-19 0 -36 -7 -41 -17 -8 -13 -15 -7 -41 38
-43 74 -61 139 -67 234 -8 127 -13 149 -30 135 -16 -14 -19 -121 -4 -185 5
-22 7 -41 5 -43 -7 -7 -36 71 -52 138 -8 36 -20 83 -25 105 l-10 40 -15 -29
c-12 -23 -13 -39 -3 -94 6 -36 18 -81 26 -100 17 -41 17 -45 4 -37 -15 9 -64
111 -85 175 -23 72 -32 80 -40 36 -10 -50 1 -100 37 -174 29 -59 32 -82 9 -68
-5 4 -38 44 -72 89 -34 45 -65 84 -70 85 -20 8 -7 -70 21 -123 17 -32 29 -60
26 -62 -2 -2 -24 10 -50 28 -25 18 -49 30 -52 26 -4 -4 4 -29 18 -57 25 -50
25 -51 4 -48 -27 4 -32 -23 -12 -64 20 -38 20 -38 1 -38 -19 0 -20 -40 -1 -66
8 -10 12 -29 9 -42 -3 -13 2 -33 13 -50 10 -15 17 -36 16 -47 -2 -11 6 -30 18
-42 11 -12 20 -31 20 -42 0 -24 36 -51 67 -51 13 0 23 -4 23 -10 0 -5 -6 -10
-14 -10 -8 0 -22 -7 -30 -16 -15 -14 -14 -18 7 -47 13 -18 29 -44 37 -59 15
-31 26 -33 83 -17 22 6 46 8 55 4 13 -5 9 -11 -20 -26 -43 -22 -54 -37 -40
-51 6 -6 8 -17 5 -24 -3 -8 2 -17 11 -20 9 -3 16 -14 16 -24 0 -10 7 -23 15
-30 8 -7 15 -19 15 -27 0 -10 8 -12 34 -8 41 8 49 -2 33 -44 -10 -28 -10 -34
6 -45 9 -7 17 -18 17 -24 0 -6 9 -16 20 -22 11 -6 20 -17 20 -25 0 -8 11 -22
25 -31 14 -9 25 -24 25 -34 0 -10 9 -22 20 -25 11 -3 20 -11 20 -17 0 -6 10
-21 23 -33 12 -12 30 -32 39 -45 12 -16 22 -20 35 -15 10 5 23 9 28 10 6 1 12
3 15 5 3 1 18 3 33 4 27 2 26 -1 -30 -51 -32 -29 -81 -64 -109 -79 -46 -25
-104 -87 -92 -99 3 -3 23 8 45 24 50 37 99 62 106 55 9 -9 161 73 194 105 18
17 42 31 53 31 27 0 25 -17 -2 -26 -32 -10 -77 -45 -83 -64 -3 -9 -24 -23 -47
-31 -26 -8 -47 -24 -57 -41 -11 -19 -29 -32 -56 -39 -22 -5 -54 -17 -72 -25
-17 -8 -36 -14 -41 -14 -16 0 -76 -34 -85 -47 -4 -7 -30 -15 -58 -19 -39 -5
-59 -15 -92 -45 -37 -36 -39 -39 -18 -39 18 0 22 -4 18 -20 -8 -32 12 -24 64
25 26 25 57 45 67 45 11 0 40 3 66 6 31 5 46 3 46 -5 0 -6 -11 -11 -25 -11
-28 0 -90 -23 -112 -42 -11 -9 -11 -13 -2 -19 9 -5 8 -11 -4 -24 -10 -9 -17
-20 -17 -23 0 -4 -10 -12 -22 -17 -14 -6 -22 -17 -20 -28 2 -9 -4 -20 -13 -24
-13 -5 -14 -8 -3 -15 10 -7 10 -11 -4 -22 -51 -39 3 -34 142 13 112 38 115 40
130 78 9 21 25 54 38 73 12 19 22 38 22 43 0 4 60 7 133 7 154 0 208 12 281
65 27 19 55 35 61 35 18 0 188 85 252 126 31 20 82 60 112 88 31 29 88 73 126
98 39 25 120 96 180 158 64 64 130 122 157 136 48 24 132 41 253 48 187 12
264 20 259 27 -3 5 3 9 12 9 26 0 6 14 -48 34 -26 10 -69 37 -95 60 -26 24
-59 49 -72 55 -31 17 -144 6 -191 -19 -19 -10 -57 -28 -85 -40 -90 -39 -168
-90 -215 -140 -26 -27 -112 -90 -125 -90 -6 0 -12 -6 -12 -14 0 -11 5 -12 24
-3 18 8 31 7 59 -7 32 -15 35 -20 29 -44 -8 -34 -25 -44 -44 -29 -11 9 -13 9
-8 0 4 -6 2 -15 -4 -18 -5 -4 -8 -13 -5 -20 6 -16 -8 -28 -49 -43 -16 -5 -38
-13 -48 -17 -16 -7 -17 -4 -11 21 3 16 15 37 26 47 25 21 15 36 -12 19 -22
-13 -25 -10 -35 36 -3 18 -11 30 -16 27 -9 -6 -6 -57 6 -88 11 -28 -3 -19 -20
13 -8 16 -15 44 -15 62 -1 38 -20 55 -93 83 -44 17 -50 23 -83 93 -20 41 -54
129 -76 196 -39 117 -41 126 -44 271 -2 87 -9 171 -17 200 l-14 50 -16 -39
c-10 -21 -17 -42 -17 -47 0 -4 -4 -10 -9 -13 -4 -3 -6 18 -4 47 2 29 -1 96 -7
149 -14 124 -10 133 69 141 74 8 231 57 333 104 76 35 78 35 112 19 44 -21 49
-20 36 4 -12 23 2 27 20 5 7 -8 19 -15 28 -15 9 0 26 -10 39 -22 12 -12 31
-22 41 -23 10 0 35 -11 55 -24 21 -13 44 -20 53 -17 8 3 27 -3 42 -13 39 -27
82 -36 82 -16 0 13 7 11 33 -9 34 -26 97 -46 97 -31 0 5 -14 30 -31 57 -17 27
-29 51 -26 54 2 3 20 -9 38 -26 62 -58 159 -108 159 -82 0 4 -27 34 -60 67
-67 66 -82 97 -20 42 51 -47 111 -77 152 -77 l32 0 -45 29 c-52 33 -142 112
-135 118 2 3 27 -11 56 -31 66 -46 150 -73 176 -58 18 11 18 11 -4 12 -13 0
-37 7 -55 16 -48 25 -157 104 -157 114 0 5 28 -6 63 -24 56 -31 154 -66 181
-66 6 0 -15 11 -48 25 -76 31 -167 92 -289 195 l-98 82 22 24 c30 32 63 40
204 54 66 6 142 16 168 21 26 5 76 9 110 9 40 0 57 3 48 9 -11 7 -10 10 5 13
14 3 4 11 -33 27 -29 13 -74 39 -100 57 -41 29 -56 34 -106 34 -41 0 -72 -7
-105 -24 -26 -13 -84 -35 -130 -50 -46 -15 -101 -40 -124 -56 -38 -28 -41 -29
-70 -14 -18 9 -36 32 -47 57 -22 50 -58 95 -112 137 -27 22 -37 26 -32 14 4
-11 2 -15 -4 -11 -6 4 -8 -3 -6 -17 4 -18 -1 -25 -19 -29 -34 -10 -36 -9 -43
13 -3 11 -13 20 -21 20 -8 0 -12 5 -9 10 3 6 1 10 -4 10 -6 0 -11 4 -11 9 0 5
10 7 23 4 12 -3 19 -3 15 2 -4 4 0 14 8 23 14 13 14 17 -1 31 -15 15 -21 13
-75 -16 -69 -39 -70 -39 -70 -13 0 11 -11 45 -25 76 l-25 57 -34 -32 c-19 -18
-48 -61 -65 -95 -17 -33 -31 -54 -31 -46 0 9 -6 5 -15 -10 -13 -23 -14 -24
-15 -4 0 12 11 38 25 58 13 20 22 36 19 36 -3 0 11 20 32 45 20 25 34 45 32
45 -3 0 -25 -13 -49 -29z"/>
<path d="M6703 2996 c-28 -13 -78 -30 -110 -36 -32 -7 -93 -25 -135 -40 -88
-32 -151 -36 -253 -15 -104 22 -135 19 -268 -26 -110 -36 -164 -58 -363 -149
-57 -26 -209 -139 -199 -148 2 -2 24 5 48 17 54 26 87 27 87 3 0 -26 -20 -42
-50 -42 -15 0 -53 -9 -85 -20 -31 -11 -61 -18 -65 -15 -9 6 -112 -36 -122 -50
-4 -5 -5 -12 -2 -16 2 -4 0 -10 -6 -14 -18 -11 -11 -26 8 -16 10 5 81 13 158
16 l140 8 65 -49 c35 -27 66 -52 67 -56 2 -5 15 -8 28 -8 14 0 24 -6 24 -15 0
-8 17 -22 38 -32 20 -9 43 -23 51 -31 8 -7 24 -20 37 -29 13 -8 24 -24 24 -35
0 -11 8 -22 19 -25 11 -3 21 -14 24 -25 3 -11 14 -22 25 -25 11 -3 26 -18 32
-34 7 -17 20 -29 30 -29 10 0 27 -16 39 -35 12 -21 28 -35 39 -35 11 0 32 -16
46 -35 28 -36 50 -45 60 -22 3 8 8 7 16 -6 24 -38 72 -87 81 -81 5 3 9 18 9
35 0 37 14 37 29 2 13 -30 64 -93 76 -93 4 0 5 25 3 55 -3 30 -3 55 -2 55 2 0
12 -17 23 -37 10 -21 33 -51 50 -67 l31 -30 0 31 c0 17 -7 50 -15 73 -19 55
-13 61 15 15 12 -19 36 -43 52 -51 l31 -16 -6 28 c-4 16 -9 39 -13 52 -5 18
-2 22 15 22 25 0 25 1 6 47 -8 20 -13 38 -10 41 3 3 23 -16 46 -42 44 -50 55
-50 61 -1 l3 30 27 -45 c14 -25 38 -56 53 -70 l28 -25 -6 40 c-3 22 -8 56 -12
75 -7 34 -6 33 24 -16 35 -59 93 -122 99 -105 2 6 -12 47 -31 91 -19 44 -33
80 -32 80 2 0 20 -23 40 -50 32 -43 115 -104 115 -84 0 4 -19 34 -43 68 -63
88 -65 95 -24 59 22 -19 49 -33 64 -33 24 0 21 5 -41 71 -37 39 -108 132 -158
207 -49 75 -107 157 -127 182 -20 24 -58 83 -86 131 -53 92 -132 192 -145 184
-4 -3 -10 4 -13 16 -4 16 -3 18 8 9 11 -9 21 -7 44 9 17 12 56 34 88 49 53 25
72 27 238 34 161 7 324 22 285 27 -12 1 -13 3 -1 10 10 6 4 12 -23 21 -20 6
-60 28 -89 48 -69 48 -137 53 -214 18z"/>
<path d="M1410 1722 c0 -6 13 -19 29 -28 25 -15 29 -24 35 -77 3 -34 2 -65 -3
-70 -10 -10 -51 2 -157 47 -87 37 -345 105 -423 112 -61 5 -65 4 -47 -10 11
-9 23 -16 27 -16 14 0 21 -41 9 -55 -16 -19 -6 -31 30 -38 34 -7 40 -26 10
-34 -30 -8 -24 -30 13 -43 29 -10 30 -12 15 -24 -25 -18 -22 -34 7 -48 28 -13
30 -19 13 -37 -11 -10 -9 -16 10 -28 12 -9 22 -21 22 -27 0 -22 95 -80 171
-105 35 -11 35 -11 54 -109 10 -53 22 -101 26 -107 4 -5 10 -28 14 -50 4 -22
14 -59 22 -82 8 -23 12 -47 8 -53 -12 -19 13 -28 57 -22 l40 5 -22 -43 c-12
-23 -19 -48 -17 -55 3 -6 -17 -36 -44 -65 -27 -29 -49 -62 -49 -74 0 -27 -18
-46 -42 -46 -25 0 -128 -59 -136 -78 -3 -9 4 -23 17 -33 19 -15 20 -21 9 -38
-18 -29 -7 -34 35 -16 47 19 49 19 45 -8 -4 -27 2 -26 106 16 71 29 80 36 100
75 21 43 22 44 63 39 22 -2 65 -1 94 4 76 12 270 85 360 136 41 23 97 47 125
54 67 15 118 41 189 95 86 65 167 101 270 119 314 55 305 53 241 72 -27 8 -64
25 -81 39 -48 36 -106 33 -188 -11 -36 -19 -87 -42 -114 -51 -26 -9 -67 -27
-90 -40 -23 -13 -51 -24 -62 -24 -11 0 -32 -5 -48 -11 l-28 -11 23 -18 c26
-21 28 -33 7 -50 -13 -10 -19 -9 -36 6 -12 11 -25 29 -30 42 -5 12 -16 22 -24
22 -9 0 -44 23 -79 51 -120 96 -163 243 -121 407 17 65 17 70 0 95 -9 15 -40
43 -69 64 -28 20 -64 49 -81 64 -48 44 -218 155 -245 161 -14 3 -33 9 -42 13
-11 4 -18 3 -18 -3z m414 -878 c3 -9 6 -25 6 -37 0 -18 2 -19 10 -7 5 8 10 25
10 38 0 20 4 22 23 16 28 -8 37 -22 37 -56 0 -35 -9 -58 -24 -58 -6 0 -19 -9
-29 -20 -10 -12 -22 -18 -27 -15 -6 3 -10 2 -10 -3 0 -10 -47 -27 -63 -23 -4
1 -18 -5 -29 -13 -13 -9 -32 -13 -49 -9 -16 3 -35 0 -43 -6 -24 -20 -50 29
-41 77 6 40 33 62 73 62 19 0 72 25 112 53 30 21 36 21 44 1z m-279 -118 c19
-13 18 -15 -5 -60 -18 -33 -31 -46 -47 -46 -12 0 -25 -4 -28 -10 -3 -5 -13
-10 -21 -10 -8 0 -22 -8 -32 -17 -20 -21 -113 -25 -119 -6 -7 19 75 91 145
128 73 39 80 41 107 21z"/>
</g>
</svg>
