<?xml version="1.0" standalone="no"?>
<!DOCTYPE svg PUBLIC "-//W3C//DTD SVG 20010904//EN"
 "http://www.w3.org/TR/2001/REC-SVG-20010904/DTD/svg10.dtd">
<svg version="1.0" xmlns="http://www.w3.org/2000/svg"
 width="800.000000pt" height="415.000000pt" viewBox="0 0 800.000000 415.000000"
 preserveAspectRatio="xMidYMid meet">
<metadata>
Created by potrace 1.15, written by Peter Selinger 2001-2017
</metadata>
<g transform="translate(0.000000,415.000000) scale(0.100000,-0.100000)"
fill="#000000" stroke="none">
<path d="M7917 3285 c-37 -19 -112 -50 -165 -71 -53 -20 -110 -43 -127 -50
-16 -7 -48 -20 -70 -28 -22 -8 -78 -31 -125 -51 -169 -73 -399 -145 -530 -165
-30 -5 -93 -15 -140 -24 -47 -8 -107 -17 -135 -21 -27 -3 -86 -10 -130 -15
-44 -5 -235 -19 -425 -30 -215 -13 -347 -25 -351 -32 -4 -6 -19 -8 -35 -4
l-29 6 25 -15 c14 -8 38 -14 54 -15 16 0 27 -2 24 -5 -3 -3 -62 -7 -131 -8
-114 -2 -150 -8 -135 -22 3 -3 41 -6 84 -6 44 0 118 -7 167 -15 48 -8 92 -12
97 -9 6 3 10 2 10 -3 0 -24 -141 -25 -370 -2 -102 10 -168 9 -188 -4 -6 -4
-12 -2 -12 3 0 6 -9 11 -21 11 -11 0 -17 5 -14 10 7 11 -21 14 -115 11 -35 -1
-67 -6 -70 -11 -3 -5 -42 -10 -87 -11 -47 -2 -89 -9 -99 -16 -10 -7 -13 -13
-7 -13 7 0 14 4 17 9 3 5 15 7 27 4 11 -3 16 -9 11 -12 -5 -3 -11 -12 -13 -20
-3 -8 -30 -20 -59 -28 -35 -8 -64 -23 -78 -39 -13 -15 -24 -25 -26 -23 -3 6
-33 81 -41 104 -6 19 -8 18 -31 -10 -18 -21 -23 -24 -19 -10 7 20 6 20 -9 1
-12 -14 -13 -23 -5 -33 6 -7 9 -27 7 -43 -3 -17 -1 -33 4 -36 13 -8 9 -21 -8
-28 -13 -5 -14 -4 -6 7 15 18 3 30 -15 16 -17 -15 -17 -29 2 -50 15 -15 14
-17 -10 -23 -18 -5 -25 -12 -21 -21 3 -9 -1 -15 -9 -15 -8 0 -15 -4 -15 -10 0
-5 5 -10 12 -10 6 0 4 -6 -7 -13 -11 -9 -15 -19 -10 -27 6 -9 4 -11 -5 -5 -9
6 -10 0 -5 -26 10 -45 14 -51 31 -45 9 3 14 -2 14 -14 0 -11 -6 -20 -14 -20
-15 0 -26 -21 -26 -51 0 -18 -5 -19 -67 -14 -38 3 -88 8 -113 11 -89 11 -210
-55 -247 -137 -10 -21 -25 -39 -34 -39 -17 0 -49 30 -49 46 0 5 7 1 14 -9 13
-16 14 -16 20 7 3 13 3 33 -1 43 -6 16 -5 16 11 4 25 -21 38 -2 26 38 -5 19
-7 38 -4 43 7 11 -30 127 -57 180 -18 35 -8 41 21 13 16 -16 32 -26 36 -23 7
8 -13 47 -39 76 -19 20 -19 22 -2 22 22 0 114 42 115 53 0 13 -41 24 -113 30
-74 6 -91 13 -83 32 6 17 -32 78 -44 70 -6 -3 -10 -14 -10 -23 -1 -24 -24 -52
-44 -52 -9 0 -25 -4 -36 -10 -11 -5 -29 -15 -41 -21 -17 -8 -24 -7 -35 8 -7
10 -14 23 -14 30 0 6 -5 15 -12 19 -8 5 -9 2 -5 -10 12 -30 -10 -8 -23 24 -15
35 -26 38 -35 9 -13 -40 -12 -54 5 -101 10 -26 15 -50 11 -53 -3 -4 -1 -6 4
-5 42 9 45 -17 10 -78 -23 -41 -24 -45 -9 -68 9 -14 14 -35 11 -50 -2 -14 0
-61 5 -103 7 -62 6 -82 -6 -105 -8 -16 -11 -36 -7 -45 4 -9 15 -32 24 -52 16
-36 16 -38 -15 -103 -33 -69 -41 -75 -67 -53 -18 15 -128 43 -136 35 -3 -3
-30 0 -59 7 -30 7 -65 11 -78 8 -37 -7 -106 15 -118 37 -14 25 -34 25 -51 1
-8 -11 -29 -22 -46 -26 -32 -6 -33 -5 -33 25 0 17 6 33 14 36 12 5 11 9 -5 25
-11 11 -19 33 -19 54 0 60 -18 38 -30 -37 -7 -40 -17 -79 -22 -85 -7 -9 -6
-13 3 -13 11 0 11 -2 -1 -9 -8 -6 -19 -7 -25 -3 -5 3 -52 7 -104 7 -79 1 -98
-2 -113 -17 -21 -21 -54 -24 -65 -4 -4 7 -25 19 -45 25 -21 7 -38 17 -38 23 0
6 -6 6 -15 -2 -8 -7 -15 -9 -15 -5 0 4 -6 2 -14 -4 -8 -6 -18 -11 -22 -10 -5
1 -18 -2 -28 -6 -19 -8 -26 -2 -57 45 -8 11 -11 12 -15 3 -4 -8 -24 -13 -57
-12 -29 1 -42 4 -29 6 28 5 29 20 1 28 -29 10 -274 9 -290 0 -20 -13 -122 -13
-154 -1 -35 14 -65 10 -65 -8 0 -9 -12 -11 -44 -6 -37 5 -43 4 -39 -10 7 -25
-31 -22 -42 3 -13 30 -61 31 -57 2 2 -14 0 -16 -6 -7 -5 7 -27 15 -49 16 -23
2 -46 7 -52 10 -6 4 -16 4 -21 1 -6 -4 -17 -2 -24 4 -10 8 -21 8 -42 1 -20 -8
-35 -8 -56 1 -28 11 -61 9 -133 -10 -27 -7 -43 -7 -52 1 -7 5 -20 7 -29 4 -9
-4 -25 0 -34 9 -19 17 -50 10 -50 -11 0 -8 -6 -14 -12 -15 -67 -6 -95 -5 -108
1 -9 5 -24 3 -35 -3 -26 -14 -93 -17 -125 -5 -16 6 -32 5 -47 -3 -30 -16 -29
-29 3 -29 14 0 22 -4 19 -10 -8 -14 -41 -7 -63 13 -24 22 -39 21 -54 -3 -7
-11 -16 -20 -21 -20 -4 0 -6 4 -2 9 7 13 -34 41 -62 41 -12 0 -26 -8 -32 -17
-8 -15 -12 -16 -35 -3 -29 15 -39 10 -41 -23 -1 -14 -9 -23 -23 -25 -12 -2
-22 1 -22 7 0 6 7 11 15 11 22 0 18 19 -6 28 -22 9 -109 -8 -109 -20 0 -5 -7
-8 -15 -8 -8 0 -15 -6 -15 -12 0 -8 -3 -9 -8 -3 -18 25 -46 31 -116 22 -39 -5
-89 -10 -111 -11 -26 -1 -39 -5 -37 -13 1 -7 -5 -13 -14 -13 -8 0 -13 4 -10 9
3 5 -21 9 -54 9 -33 0 -60 -4 -60 -10 0 -6 19 -8 44 -6 36 2 46 0 49 -14 4
-15 17 -17 91 -14 47 1 86 0 86 -3 -1 -27 -21 -31 -143 -27 l-127 3 0 -535 0
-534 23 7 c12 3 34 7 50 8 15 0 27 4 27 9 0 4 4 8 9 8 5 0 7 -9 4 -20 -3 -11
0 -20 6 -20 14 0 15 -37 1 -45 -5 -3 -10 -14 -10 -23 0 -31 27 20 35 66 5 33
10 40 19 33 7 -6 16 -8 20 -4 4 4 4 -1 0 -12 -6 -14 -4 -17 8 -13 8 4 21 2 28
-2 8 -5 18 -6 24 -3 5 4 22 7 38 9 17 1 36 11 44 23 18 24 39 27 60 7 21 -22
-11 -86 -36 -71 -5 3 -10 -1 -10 -9 0 -18 16 -21 25 -5 4 6 13 8 21 5 8 -3 11
0 8 8 -3 7 2 16 10 19 9 4 12 14 9 25 -2 11 1 23 8 27 8 5 10 4 5 -3 -10 -17
6 -15 32 4 21 14 22 14 22 -5 0 -23 7 -26 29 -12 8 5 10 14 6 22 -6 9 -4 11 8
6 10 -4 21 1 27 11 9 14 10 13 5 -8 -4 -14 -7 -33 -8 -42 -1 -10 -7 -18 -14
-18 -7 0 -10 7 -6 16 5 14 3 15 -16 5 -12 -7 -26 -9 -33 -5 -7 5 -9 -3 -6 -24
2 -17 0 -33 -6 -35 -5 -2 -6 -9 -1 -16 6 -11 10 -10 17 3 10 17 48 22 48 6 0
-5 -8 -14 -18 -19 -9 -6 -12 -11 -5 -11 21 0 53 52 53 86 0 30 20 61 20 32 1
-8 7 -5 17 7 15 20 15 20 10 -2 -7 -32 18 -36 47 -6 22 21 26 23 26 8 0 -13 3
-15 13 -6 8 6 16 9 18 6 3 -2 6 9 7 26 2 21 -1 28 -9 23 -8 -4 -9 -3 -5 5 4 6
11 9 16 6 4 -3 6 3 3 14 -3 11 2 21 12 25 9 3 13 2 10 -4 -3 -6 -1 -10 5 -10
7 0 5 -9 -4 -22 -9 -12 -16 -36 -16 -53 0 -17 -7 -40 -15 -51 -18 -24 -19 -44
-1 -44 19 0 27 -25 13 -41 -8 -8 -5 -8 7 1 17 14 18 13 12 -8 -6 -16 -3 -22 8
-22 18 0 20 8 7 30 -6 8 -7 18 -4 23 3 6 12 -1 20 -14 8 -13 12 -17 9 -7 -2 9
1 24 9 34 16 23 9 45 -12 37 -11 -4 -14 -2 -9 5 4 7 16 12 27 12 11 0 27 7 35
15 18 17 44 20 44 4 0 -5 5 -7 10 -4 6 3 10 19 10 35 0 16 5 32 10 35 6 3 10
1 10 -6 0 -7 10 -3 23 9 29 27 40 28 32 2 -4 -11 -2 -20 4 -20 6 0 11 5 11 10
0 6 5 10 10 10 19 0 10 -22 -10 -27 -27 -7 -20 -26 11 -33 15 -4 20 -8 12 -13
-7 -4 -10 -13 -7 -20 3 -9 26 -13 69 -13 56 0 65 2 76 23 7 13 14 21 17 19 2
-3 0 -11 -4 -18 -9 -14 -11 -19 -13 -43 -1 -9 -7 -12 -18 -8 -17 6 -17 5 -2
-13 23 -27 32 -71 16 -77 -9 -4 -8 -8 3 -16 20 -14 7 -14 -25 1 -22 10 -28 9
-35 -2 -6 -9 -5 -17 2 -21 6 -4 7 -12 4 -18 -5 -8 -15 -4 -31 11 -17 17 -21
26 -13 35 7 9 7 13 -1 13 -6 0 -11 14 -11 31 0 26 -3 29 -14 20 -11 -10 -16
-6 -24 16 -6 15 -11 22 -11 15 -1 -7 6 -26 14 -42 14 -27 14 -30 0 -30 -8 0
-15 7 -15 17 0 9 -3 14 -6 10 -4 -3 -3 -14 1 -24 12 -27 14 -43 6 -43 -4 0 -7
-10 -7 -21 1 -14 -6 -23 -19 -25 -11 -2 -21 -8 -23 -13 -2 -6 -12 -11 -23 -11
-12 0 -19 -7 -19 -19 0 -11 -4 -23 -10 -26 -5 -3 -10 0 -10 7 0 9 -3 10 -8 2
-4 -6 -16 -8 -26 -4 -17 5 -15 8 12 19 18 7 29 18 26 23 -4 6 -10 6 -17 -1 -6
-6 -15 -11 -21 -11 -5 0 -1 7 10 15 16 13 17 16 4 25 -10 6 -11 10 -2 10 6 0
12 3 12 8 0 4 -20 7 -45 7 -31 0 -48 -6 -58 -19 -11 -15 -15 -16 -28 -4 -8 7
-26 19 -41 25 -21 10 -27 9 -32 -3 -3 -8 -1 -14 5 -14 6 0 4 -7 -5 -15 -19
-20 -27 -19 -19 2 4 11 3 14 -5 9 -14 -9 -15 4 -3 36 8 21 6 24 -15 26 -13 1
-29 -6 -36 -16 -7 -9 -26 -19 -43 -20 -16 -2 -37 -9 -45 -15 -9 -7 -8 -4 3 9
20 24 11 40 -11 21 -13 -10 -15 -9 -9 6 8 20 6 21 -28 5 -22 -10 -37 -50 -18
-47 5 1 10 1 13 -1 3 -1 16 -4 30 -6 13 -2 28 -10 32 -17 5 -9 12 -7 25 6 17
17 17 18 -1 11 -13 -5 -17 -4 -12 4 12 20 43 14 49 -10 8 -31 -10 -48 -45 -44
-36 4 -68 -3 -68 -15 0 -5 12 -4 26 1 22 9 25 8 20 -5 -3 -8 -1 -15 3 -15 5 0
12 6 14 13 4 9 6 9 6 -1 1 -7 -8 -23 -20 -35 -14 -15 -18 -17 -14 -5 6 14 0
16 -41 12 -27 -3 -52 -10 -57 -17 -6 -8 -7 -3 -4 11 4 18 2 22 -10 18 -11 -5
-14 -2 -9 10 3 8 6 18 6 21 0 3 7 0 15 -7 13 -11 14 -10 9 4 -8 20 -13 20 -36
-1 -19 -17 -19 -16 -13 12 13 57 27 83 48 89 18 5 19 8 8 15 -11 7 -20 4 -32
-10 -15 -18 -17 -18 -23 -3 -5 14 -9 15 -19 5 -16 -16 -15 -44 3 -58 11 -9 12
-14 3 -24 -6 -6 -9 -18 -6 -25 4 -10 0 -12 -11 -8 -9 3 -16 10 -16 16 0 5 -4
7 -9 4 -5 -4 -12 0 -14 6 -4 10 -8 9 -16 -2 -10 -13 -12 -13 -21 0 -9 13 -12
12 -25 -4 -13 -17 -15 -17 -15 -4 0 9 -5 20 -12 24 -6 4 -8 3 -5 -3 4 -6 1
-16 -6 -22 -11 -8 -13 -4 -10 22 4 29 3 30 -10 14 -18 -21 -27 -22 -27 0 0 9
3 14 6 10 3 -3 15 3 27 13 16 16 23 17 35 7 8 -6 20 -12 26 -12 6 -1 19 -5 29
-9 25 -12 47 0 47 25 0 14 -5 19 -15 16 -8 -4 -17 -1 -21 5 -4 7 -3 8 4 4 7
-4 12 -1 12 8 0 10 -6 13 -15 10 -9 -4 -15 0 -15 10 0 23 -17 20 -23 -4 -3
-14 -14 -20 -31 -20 -14 0 -26 5 -26 10 0 7 -6 7 -19 0 -14 -7 -22 -7 -27 1
-4 8 -9 7 -14 -2 -7 -10 -14 -10 -32 -2 -13 7 -18 12 -11 12 6 1 15 22 19 49
4 26 12 50 18 54 6 4 7 10 3 14 -4 4 -15 -1 -26 -10 -15 -13 -20 -14 -24 -4
-4 8 -6 7 -6 -4 -1 -10 4 -18 9 -18 14 0 13 -57 -2 -66 -6 -4 -8 -3 -4 4 4 7
-1 10 -14 9 -12 -1 -20 -8 -20 -20 0 -10 5 -15 10 -12 13 8 13 -6 -1 -25 -8
-11 -12 -12 -16 -2 -9 23 -23 1 -23 -39 0 -44 2 -45 34 -24 22 15 24 14 29 -5
4 -18 3 -19 -9 -9 -12 10 -13 9 -8 -5 3 -9 1 -16 -5 -16 -6 0 -11 4 -11 10 0
5 -7 7 -15 4 -26 -11 -16 -24 18 -24 46 0 52 -10 20 -31 -20 -13 -31 -15 -40
-7 -9 8 -13 7 -13 -2 0 -7 8 -19 18 -26 16 -13 16 -13 -3 -14 l-20 -1 20 -9
c13 -5 26 -3 37 7 15 14 19 14 33 -1 10 -9 14 -24 10 -35 -4 -14 0 -21 12 -24
17 -4 17 -5 0 -6 -11 -1 -21 7 -24 19 -5 17 -13 20 -44 18 -25 -1 -39 -7 -39
-15 0 -23 30 -27 45 -7 8 11 15 14 15 7 0 -13 -39 -53 -52 -53 -20 0 -6 -41
18 -50 14 -6 22 -15 18 -21 -4 -8 -9 -8 -17 0 -21 21 -27 11 -27 -40 0 -37 3
-48 13 -43 10 6 10 4 0 -7 -7 -7 -13 -32 -13 -56 l0 -43 40 0 c27 0 43 5 46
15 4 8 11 15 16 15 6 0 5 -6 -2 -15 -15 -18 -4 -19 39 -4 17 6 31 15 31 21 0
6 -6 8 -13 5 -24 -9 -41 8 -28 29 6 12 11 14 11 5 0 -10 9 -12 37 -6 33 6 35
5 23 -10 -8 -10 -10 -19 -4 -25 7 -7 20 1 39 20 27 28 30 29 47 13 18 -16 19
-16 13 16 -9 50 -43 78 -61 49 -5 -8 -2 -9 9 -5 10 3 17 2 17 -3 0 -13 -37
-13 -45 -1 -3 6 -17 4 -33 -5 -24 -12 -27 -12 -30 2 -2 9 2 20 9 25 11 6 10 9
-3 14 -17 7 -18 21 -5 43 5 7 3 12 -7 12 -16 0 -20 -10 -17 -41 1 -9 -5 -22
-14 -29 -8 -7 -12 -16 -10 -21 8 -12 -31 -30 -49 -23 -25 9 -19 24 9 24 14 0
25 5 25 10 0 6 -4 10 -10 10 -5 0 -10 5 -10 12 0 9 3 9 12 0 7 -7 16 -12 22
-12 6 0 5 5 -1 11 -6 6 -9 18 -6 25 3 8 0 14 -6 14 -6 0 -11 -4 -11 -10 0 -5
-8 -10 -17 -10 -13 0 -14 3 -6 11 6 6 9 17 6 25 -4 10 8 13 50 13 31 -1 60 2
65 5 6 3 8 -2 5 -14 -3 -11 -10 -20 -16 -20 -7 0 -6 -5 2 -13 10 -10 14 -9 22
5 11 20 34 25 24 5 -4 -6 -1 -5 7 4 9 11 20 14 33 9 20 -8 45 5 45 22 0 6 -6
8 -14 5 -8 -3 -17 -1 -20 6 -3 9 -7 9 -13 -1 -5 -7 -19 -14 -31 -17 -32 -6
-17 21 19 34 40 14 36 27 -9 35 -60 10 -66 8 -52 -9 7 -8 8 -15 2 -15 -5 0
-15 7 -22 15 -7 8 -9 15 -5 15 4 0 2 7 -5 15 -9 10 -9 15 -1 15 6 0 11 -5 11
-11 0 -7 11 -8 30 -4 19 4 30 3 30 -4 0 -6 10 -11 23 -11 12 0 28 -4 36 -9 20
-13 41 -2 41 19 0 10 7 20 15 24 9 3 15 0 15 -9 0 -9 6 -12 18 -9 14 5 14 4 2
-4 -8 -6 -17 -9 -20 -8 -3 2 -16 -7 -30 -20 -14 -14 -19 -24 -12 -24 9 0 11
-7 7 -21 -5 -14 -4 -19 4 -15 7 5 9 1 5 -8 -3 -9 -12 -16 -20 -16 -8 0 -14 -4
-14 -10 0 -13 13 -13 45 2 14 6 25 17 25 25 0 14 39 34 52 26 5 -2 8 -11 8
-19 0 -11 -6 -13 -20 -9 -15 5 -18 3 -14 -9 4 -12 0 -16 -17 -17 -18 -1 -20
-2 -6 -6 10 -3 37 8 59 24 40 27 62 33 121 34 15 0 27 4 27 10 0 6 5 7 10 4
15 -9 12 -22 -6 -29 -9 -4 -23 -1 -31 5 -14 12 -28 5 -28 -14 0 -7 -15 -11
-38 -10 -42 2 -46 -6 -17 -32 17 -15 20 -16 25 -2 5 10 17 14 43 12 20 -1 29
-1 20 2 -10 2 -18 10 -18 18 0 8 7 11 20 8 29 -8 62 24 54 51 -6 19 -6 20 19
3 24 -16 26 -16 20 0 -4 11 -3 14 5 9 14 -8 69 19 96 46 10 11 21 16 25 11 3
-5 14 -12 23 -16 11 -4 15 -12 12 -21 -5 -13 0 -14 25 -6 17 5 34 9 37 9 3 -1
9 2 12 6 4 4 -4 5 -18 3 -17 -2 -26 2 -28 14 -3 16 3 17 45 12 37 -4 45 -3 33
6 -12 9 -11 10 8 5 25 -7 30 9 7 22 -10 6 2 12 41 22 40 9 60 9 67 2 8 -8 15
-7 26 3 39 36 104 25 68 -11 -12 -12 -19 -13 -38 -3 -19 11 -24 10 -36 -6 -8
-11 -13 -13 -13 -5 0 9 -4 10 -13 4 -6 -6 -22 -9 -34 -8 -18 1 -20 -1 -12 -17
11 -21 -9 -35 -36 -24 -8 3 -15 1 -15 -4 0 -6 -6 -10 -12 -10 -7 0 -30 -16
-52 -35 -35 -32 -65 -47 -52 -27 3 5 -8 6 -25 4 -16 -2 -32 -8 -35 -13 -3 -5
-14 -9 -26 -9 -17 0 -18 3 -8 14 6 8 17 13 25 10 7 -3 16 0 21 7 4 8 3 10 -4
5 -7 -4 -12 -2 -12 4 0 15 -36 -5 -44 -25 -10 -26 5 -45 35 -45 16 0 29 5 29
11 0 6 8 9 19 6 10 -2 25 0 34 5 13 7 15 5 10 -9 -6 -17 -5 -17 14 0 24 21 34
22 27 2 -5 -11 -2 -14 12 -9 11 4 24 10 29 14 6 4 24 12 40 17 24 8 33 7 45
-5 13 -14 12 -15 -2 -9 -19 7 -43 -17 -35 -36 3 -7 -3 -19 -14 -25 -15 -9 -17
-9 -13 2 3 8 1 17 -5 21 -6 3 -11 1 -11 -6 0 -10 -3 -10 -12 -1 -13 13 -29 16
-27 5 4 -24 -4 -30 -33 -27 -21 3 -28 1 -19 -5 9 -6 10 -11 2 -15 -6 -4 -8
-13 -5 -19 4 -7 4 -9 -1 -5 -4 4 -14 3 -21 -3 -10 -9 -15 -7 -20 5 -3 9 -17
16 -31 16 -17 0 -23 -4 -20 -13 3 -8 -1 -14 -8 -14 -7 0 -11 6 -8 14 3 9 -3
13 -20 13 -14 0 -27 6 -30 13 -6 15 -80 14 -120 -2 -16 -6 -34 -11 -42 -11
-38 0 -63 -38 -35 -55 6 -3 7 1 4 9 -3 9 -2 16 4 16 14 0 10 -21 -11 -50 -26
-37 -4 -49 27 -14 14 16 26 24 26 18 0 -7 -7 -14 -15 -18 -8 -3 -15 -10 -15
-16 0 -6 52 -10 145 -10 84 0 145 4 145 9 0 17 -19 22 -41 11 -11 -7 -23 -9
-26 -6 -3 3 6 11 21 17 23 11 29 9 49 -9 31 -29 45 -28 49 6 2 17 8 26 17 24
12 -3 12 -1 1 13 -11 14 -11 16 1 13 8 -2 17 -7 20 -12 9 -12 31 3 23 16 -4 6
1 6 14 -1 15 -8 23 -8 27 0 4 6 14 8 22 5 11 -4 13 -2 9 9 -3 8 0 14 6 12 6
-1 17 9 24 22 11 22 10 27 -7 39 -29 20 -23 32 15 30 l35 -1 -15 -29 c-8 -16
-12 -33 -9 -37 3 -5 0 -11 -7 -13 -15 -5 -3 -38 14 -38 10 0 10 2 -1 9 -11 7
-9 13 8 30 11 11 21 33 21 47 0 14 4 23 10 19 6 -3 10 0 10 7 1 8 6 6 15 -6 8
-11 13 -28 9 -38 -3 -10 -1 -18 4 -18 6 0 12 5 14 12 2 6 10 8 16 4 9 -5 8
-14 -3 -36 -8 -16 -15 -36 -15 -45 0 -14 -16 -20 -51 -17 -9 1 -26 -10 -39
-23 l-23 -24 46 1 c36 0 48 5 52 19 4 11 11 19 18 19 8 0 8 -3 -1 -12 -24 -24
-10 -28 98 -28 67 0 110 4 110 10 0 6 5 10 11 10 5 0 7 -4 4 -10 -11 -18 47
-11 61 7 13 17 14 17 8 0 -5 -14 0 -17 25 -17 17 0 31 4 31 9 0 5 11 19 25 32
13 13 25 30 25 37 0 6 5 12 10 12 6 0 10 5 10 11 0 5 -4 7 -10 4 -11 -7 -13 6
-4 29 3 9 11 16 16 16 15 0 37 32 38 53 0 21 -13 22 -44 1 -16 -10 -26 -12
-31 -5 -3 6 -3 11 2 11 4 0 1 5 -7 11 -13 8 -12 9 4 7 12 -2 20 4 22 15 4 26
14 34 14 12 0 -15 3 -16 12 -7 15 15 17 44 3 54 -5 4 -6 10 -2 14 12 12 47
-28 47 -53 0 -16 4 -22 12 -17 8 5 9 2 5 -10 -4 -10 -7 -22 -7 -27 0 -6 -4 -7
-10 -4 -11 7 -13 -6 -4 -29 7 -19 30 -21 41 -3 4 6 22 19 40 29 l32 16 -5 -39
c-5 -38 -4 -40 16 -29 16 9 20 8 20 -5 0 -8 -8 -15 -17 -16 -11 0 -7 -5 10
-11 24 -9 32 -7 49 12 11 12 23 18 27 14 3 -4 0 -9 -6 -11 -7 -3 -13 -9 -13
-15 0 -6 7 -8 14 -5 10 4 13 1 9 -9 -9 -24 7 -16 35 17 23 28 27 30 33 13 3
-11 2 -25 -3 -31 -7 -9 -7 -13 0 -13 6 0 16 9 22 21 6 11 19 19 28 17 9 -2 23
3 29 12 11 13 14 13 23 0 5 -8 10 -19 10 -25 0 -5 -4 -3 -10 5 -13 21 -22 7
-12 -20 6 -16 11 -19 16 -12 4 7 12 9 18 5 7 -3 -7 -15 -32 -27 -24 -12 -47
-31 -51 -43 l-8 -23 184 0 c141 0 185 3 185 13 0 8 2 9 8 1 5 -8 63 -12 180
-13 148 -1 172 1 172 14 0 8 3 15 8 15 4 0 16 16 26 34 10 19 30 45 43 58 23
21 22 17 -7 -32 -19 -30 -40 -63 -48 -72 -14 -17 -12 -18 36 -18 40 0 52 4 55
18 4 16 5 16 6 0 0 -10 8 -18 16 -18 18 0 19 9 5 44 -6 17 -6 26 0 26 6 0 10
11 10 25 0 14 5 25 11 25 6 0 9 -13 6 -34 -4 -30 -2 -33 17 -28 11 3 24 10 28
15 4 6 13 4 23 -6 9 -10 21 -15 26 -12 14 10 10 -21 -5 -34 -10 -9 -17 -7 -27
6 -8 9 -9 14 -2 10 6 -4 14 -3 18 3 12 20 -28 10 -46 -12 -11 -11 -19 -22 -19
-23 0 -2 27 -3 59 -4 43 0 61 3 65 14 3 8 15 15 26 15 12 0 19 4 16 9 -3 5 6
12 21 16 16 4 29 2 33 -6 5 -8 10 -5 15 10 3 11 10 21 15 21 4 0 6 10 4 23 -2
12 4 4 15 -18 10 -22 16 -43 14 -47 -7 -14 -21 -8 -26 10 -4 16 -5 16 -6 0 0
-10 -5 -18 -9 -18 -5 0 -17 -7 -28 -15 -17 -13 0 -14 159 -15 151 0 177 2 177
15 0 8 5 15 10 15 6 0 10 -7 10 -15 0 -13 61 -15 493 -15 321 0 487 4 477 10
-9 6 -10 10 -3 10 6 0 15 -4 18 -10 9 -15 378 -13 393 2 8 8 15 8 24 1 8 -7
152 -11 401 -12 312 -2 387 0 388 11 5 107 4 145 -4 156 -7 9 -6 11 6 6 18 -6
30 -32 21 -45 -3 -5 -7 -36 -8 -68 l-2 -58 53 -1 c47 -1 53 1 53 19 0 16 4 19
16 15 14 -5 15 -4 4 9 -14 16 -30 11 -30 -10 0 -8 -5 -17 -12 -21 -8 -5 -9 -2
-3 12 4 10 8 28 7 39 0 11 2 15 5 8 8 -21 51 7 70 46 13 28 18 32 21 18 2 -11
-8 -31 -24 -48 -27 -28 -27 -30 -10 -47 16 -16 17 -16 10 2 -5 14 -3 17 7 14
8 -3 20 2 27 11 8 9 10 10 6 2 -4 -8 -8 -27 -10 -43 l-4 -29 68 1 c124 4 202
12 196 21 -3 5 0 9 5 9 6 0 11 -6 12 -12 0 -7 5 2 10 20 11 37 39 41 51 7 4
-13 6 -5 7 23 1 23 5 42 10 42 5 0 8 -8 7 -17 0 -12 6 -18 19 -18 11 -1 26 -4
33 -8 6 -5 16 -6 21 -3 5 4 11 1 13 -6 7 -21 29 3 23 25 -5 21 -5 21 7 -1 8
-16 17 -21 32 -16 31 10 45 24 39 40 -7 18 26 31 37 14 7 -11 11 -10 24 2 8 9
13 18 11 20 -3 3 1 5 9 5 20 0 7 -37 -18 -47 -19 -8 -19 -9 7 -9 18 -1 27 -6
27 -18 0 -13 3 -14 12 -5 13 13 32 16 24 4 -2 -4 0 -14 5 -22 9 -13 9 -13 7 0
-2 8 2 15 7 15 6 0 10 -15 9 -32 l-1 -33 63 0 c67 0 70 3 55 43 -9 23 -8 24
22 22 18 -1 40 3 51 8 12 6 16 6 12 -1 -3 -6 3 -17 15 -25 13 -9 16 -17 10
-22 -25 -15 -7 -22 60 -23 58 -2 74 1 85 15 7 10 14 21 14 26 0 12 -28 8 -33
-5 -4 -8 -8 -4 -13 10 -5 17 -9 20 -20 11 -7 -6 -22 -8 -33 -4 -10 3 -22 2
-25 -4 -8 -13 -48 -1 -43 13 2 6 13 12 24 14 15 2 20 9 17 25 -2 12 -2 16 2
10 7 -15 44 -18 44 -3 0 5 7 7 15 4 10 -4 15 0 15 11 0 12 5 15 20 10 13 -4
20 -2 20 7 0 10 2 10 9 -1 5 -8 7 -21 3 -29 -4 -11 -1 -14 11 -9 10 4 17 1 18
-6 1 -7 7 6 13 27 7 22 18 42 26 44 7 3 10 0 6 -6 -7 -12 33 -44 45 -36 4 2
11 -1 15 -7 5 -8 3 -9 -6 -4 -8 5 -11 3 -8 -6 3 -8 11 -13 17 -11 23 5 10 -26
-14 -32 -14 -4 -25 -14 -25 -22 0 -13 3 -14 14 -5 18 15 43 5 49 -20 5 -18 16
-19 230 -19 246 0 241 -1 257 62 5 18 16 53 25 77 17 48 13 65 -10 35 -13 -18
-14 -18 -9 6 l5 25 -15 -25 c-17 -28 -23 -86 -6 -60 8 13 10 13 10 -1 0 -9 -7
-22 -15 -29 -13 -11 -15 -7 -17 21 -2 49 -2 52 6 79 6 21 5 22 -4 8 -12 -19
-40 -25 -40 -9 0 5 -9 12 -19 16 -11 3 -18 12 -15 19 3 7 -2 19 -10 26 -16 13
-13 55 5 74 5 6 9 21 9 34 0 14 4 21 11 17 6 -4 8 -14 5 -22 -4 -9 -1 -22 5
-29 9 -11 8 -14 -5 -14 -10 0 -16 -8 -16 -22 0 -19 3 -18 25 12 14 19 25 29
25 22 0 -7 12 -12 26 -12 18 0 25 5 23 18 -3 38 2 59 15 59 8 0 11 -8 8 -19
-2 -10 1 -18 8 -18 9 0 11 12 7 40 -4 30 -2 40 9 40 8 0 14 4 14 10 0 5 -6 7
-14 4 -10 -4 -14 4 -14 30 0 20 4 36 9 36 5 0 9 -7 9 -16 0 -11 5 -14 18 -9
12 4 14 3 6 -5 -6 -6 -9 -22 -6 -35 3 -20 9 -24 28 -19 15 4 24 2 24 -5 0 -6
-10 -11 -23 -11 -37 0 -48 -19 -26 -41 11 -11 17 -25 13 -30 -4 -7 1 -7 15 0
11 7 21 16 21 22 0 6 7 4 15 -4 11 -11 12 -23 5 -46 -5 -19 -5 -29 1 -26 12 8
11 -1 -3 -27 -17 -30 -35 -48 -46 -48 -18 0 -33 -54 -24 -85 10 -33 5 -58 -9
-49 -5 3 -9 -1 -9 -8 0 -10 -2 -10 -9 1 -7 11 -14 7 -30 -20 -12 -19 -21 -37
-21 -42 0 -4 110 -7 245 -7 l245 1 0 80 c0 72 -2 79 -20 79 -11 0 -20 4 -20 9
0 5 9 11 20 14 19 5 20 14 20 155 0 111 -3 152 -12 155 -9 4 -9 6 -1 6 9 1 12
201 13 826 l1 825 -41 0 c-23 0 -40 -5 -40 -11 0 -8 -13 -9 -40 -5 -26 4 -52
1 -75 -8 -20 -9 -37 -11 -40 -6 -11 18 -42 -12 -42 -41 0 -32 1 -33 26 -20 9
6 23 6 31 1 10 -6 3 -10 -23 -15 -40 -8 -61 0 -53 21 6 16 -10 19 -19 4 -3 -5
-12 -7 -19 -4 -8 3 -26 -7 -42 -21 -24 -23 -36 -26 -74 -22 -25 2 -70 0 -100
-4 -30 -5 -77 -11 -104 -14 -31 -4 -45 -10 -36 -15 9 -5 3 -10 -19 -15 -17 -3
-31 -11 -31 -16 0 -5 -14 -9 -31 -9 -25 0 -30 3 -25 16 5 14 4 15 -9 4 -8 -7
-22 -10 -31 -6 -12 4 -15 0 -12 -17 2 -14 10 -22 23 -22 11 0 20 -7 20 -15 0
-9 -9 -15 -24 -14 -13 0 -32 -7 -41 -16 -17 -17 -16 -18 12 -24 44 -9 241 -7
255 2 7 5 14 20 15 35 2 17 6 23 12 17 14 -14 28 -12 20 3 -5 9 -4 9 6 0 11
-10 11 -15 0 -28 -15 -18 -7 -30 14 -22 10 4 13 13 9 24 -6 16 -5 16 10 4 11
-9 17 -10 17 -2 0 6 8 11 17 11 15 0 14 -2 -4 -15 -25 -18 -113 -146 -113
-166 -1 -8 -7 -3 -15 11 -14 24 -14 24 -15 3 0 -12 5 -25 10 -28 6 -3 10 -16
10 -28 -1 -18 -3 -17 -14 9 -17 38 -34 50 -49 35 -16 -16 -27 -14 -21 4 4 9 0
15 -9 15 -26 0 -47 -12 -47 -26 0 -16 -9 -18 -30 -4 -10 6 -20 4 -30 -5 -8 -7
-27 -17 -42 -20 -22 -6 -28 -4 -28 9 0 10 9 16 24 16 27 0 77 36 73 52 -1 7
14 15 33 18 70 12 81 35 18 36 -28 0 -49 -6 -65 -19 -30 -27 -78 -30 -99 -6
-16 18 -18 45 -11 155 0 6 -10 32 -22 57 -28 58 -96 119 -150 136 l-40 12 5
61 c2 34 7 64 10 67 2 2 18 -6 36 -19 17 -12 28 -18 24 -12 -3 5 -3 17 0 25 9
24 42 -14 42 -49 0 -15 5 -30 11 -32 20 -7 12 -20 -9 -15 -27 7 -25 -1 6 -30
l26 -24 236 2 c131 2 258 6 283 10 25 4 68 9 95 11 27 2 96 10 154 19 58 8
126 14 153 15 l47 0 0 570 c0 314 -3 570 -7 569 -5 0 -39 -15 -76 -34z m-1435
-546 c2 -6 35 -10 79 -11 85 0 103 -6 89 -28 -6 -8 -10 -10 -10 -4 0 17 -76
15 -91 -2 -8 -10 -8 -14 0 -14 6 0 11 5 11 10 0 6 5 10 11 10 6 0 9 -6 6 -14
-4 -9 0 -12 13 -9 10 3 26 0 36 -5 11 -5 28 -6 39 -2 12 4 29 1 41 -7 14 -9
38 -12 73 -8 49 5 51 4 41 -16 -6 -11 -19 -23 -28 -26 -42 -15 -92 -59 -92
-80 0 -13 -4 -23 -9 -23 -13 0 -44 88 -37 106 3 8 2 12 -4 9 -6 -3 -10 -1 -10
5 0 7 -6 8 -19 0 -13 -7 -22 -7 -26 0 -3 5 -32 10 -63 10 -37 0 -52 3 -43 9
11 7 9 11 -9 21 -20 11 -22 10 -17 -4 4 -10 1 -16 -8 -16 -8 0 -15 4 -15 9 0
16 -28 20 -34 5 -3 -9 -1 -12 4 -9 6 3 10 1 10 -4 0 -14 -37 -51 -51 -51 -7 0
-9 -10 -7 -25 3 -14 2 -28 -3 -30 -10 -7 -15 2 -24 43 -5 26 -3 33 12 39 39
14 44 48 8 57 -36 9 -31 21 18 39 73 27 104 32 109 16z m-1455 -66 c14 3 39 1
56 -4 20 -6 40 -4 62 5 27 12 37 12 52 1 11 -8 53 -13 113 -13 86 -1 144 -8
223 -28 16 -4 27 -2 27 4 0 5 9 12 20 15 13 3 20 0 20 -9 0 -18 38 -37 58 -29
14 5 11 9 -13 20 -26 11 -5 13 165 12 215 -1 320 -13 155 -17 -55 -2 -107 -3
-116 -2 -9 1 -16 -4 -16 -11 0 -12 64 -14 142 -4 11 1 63 -2 115 -7 88 -8 92
-10 60 -19 l-35 -10 53 -8 c58 -8 81 -19 39 -19 -15 0 -27 -2 -27 -5 0 -13 37
-45 52 -45 10 0 18 -7 18 -16 0 -9 9 -18 20 -21 30 -8 24 -27 -25 -83 -25 -28
-46 -54 -46 -58 -8 -41 -11 -75 -12 -119 0 -44 -4 -52 -22 -57 -45 -11 -141
-129 -118 -145 21 -14 1 -84 -34 -119 -8 -8 -13 -37 -13 -70 l-1 -57 -15 44
c-28 79 -91 141 -143 141 -12 0 -25 8 -28 18 -7 17 -42 51 -55 52 -14 0 -53
46 -72 83 -11 20 -23 37 -27 37 -5 0 -4 10 2 23 10 23 59 37 59 17 0 -6 9 -10
21 -10 15 0 19 -4 15 -16 -3 -9 -6 -28 -7 -42 -1 -29 -3 -24 -13 21 -4 15 -11
27 -16 27 -5 0 -7 -7 -3 -16 3 -9 1 -19 -5 -23 -7 -4 -2 -14 12 -28 21 -21 24
-21 52 -6 16 8 57 16 91 17 34 2 68 8 76 14 7 6 23 9 35 5 25 -6 28 4 7 31 -9
12 -20 16 -31 12 -10 -4 -40 -8 -68 -10 -50 -4 -51 -4 -16 7 19 7 41 16 48 21
8 4 26 12 40 16 24 8 25 8 5 9 -13 1 -23 6 -23 11 0 6 10 10 23 10 12 0 32 3
45 6 17 5 21 3 16 -9 -4 -11 2 -18 19 -22 29 -8 89 7 85 20 -3 10 -6 11 -58
13 l-34 2 32 29 c17 16 41 33 53 36 38 12 4 27 -67 29 -38 2 -80 0 -94 -4 -14
-4 -35 -4 -47 1 -16 6 -27 3 -38 -7 -8 -9 -15 -11 -15 -5 0 22 -36 10 -73 -24
-21 -19 -49 -38 -62 -41 -14 -3 -22 -11 -19 -16 4 -6 1 -9 -7 -6 -8 3 -14 13
-14 23 0 10 -7 20 -15 22 -11 3 -12 2 -3 -4 9 -6 2 -14 -22 -25 -29 -13 -37
-13 -46 -2 -6 8 -15 11 -20 8 -5 -3 -9 2 -9 10 0 13 -8 15 -37 10 -21 -3 -45
-6 -53 -6 -8 0 -32 -4 -53 -10 -29 -7 -37 -13 -33 -25 5 -13 4 -14 -8 -4 -11
9 -16 9 -22 0 -4 -8 -3 -9 4 -5 7 4 12 5 12 2 0 -2 3 -12 7 -22 4 -11 3 -15
-4 -11 -13 8 -23 -15 -23 -53 0 -16 -5 -30 -12 -32 -6 -2 3 -10 20 -17 20 -9
32 -20 32 -33 0 -10 5 -16 10 -13 18 11 10 -21 -19 -74 -16 -31 -31 -48 -35
-42 -5 7 -42 11 -97 11 -72 0 -89 -3 -89 -15 0 -12 18 -15 105 -15 95 0 105
-2 115 -21 7 -11 9 -28 5 -36 -5 -14 -8 -14 -21 3 -14 18 -15 18 -4 -4 6 -12
15 -20 19 -17 5 2 11 -19 15 -48 6 -56 -6 -129 -23 -135 -6 -2 -11 -10 -11
-18 0 -8 -4 -14 -10 -14 -6 0 -7 18 -3 46 l6 45 -29 -7 c-16 -4 -37 -14 -46
-22 -12 -10 -18 -11 -18 -4 0 7 -4 12 -10 12 -5 0 -7 -6 -4 -14 6 -15 -22 -30
-31 -16 -8 12 -118 1 -127 -13 -4 -7 -11 -7 -21 2 -10 8 -16 8 -19 1 -2 -6
-17 -13 -34 -15 -29 -3 -32 0 -44 36 -11 34 -11 42 -1 49 13 8 11 20 -13 81
-6 13 -1 15 22 11 16 -2 33 1 36 7 4 6 32 11 62 11 59 0 63 3 37 28 -14 14
-16 14 -11 2 5 -13 -3 -16 -33 -17 -37 -2 -37 -1 -19 17 19 19 36 77 26 87 -3
3 -15 -14 -26 -39 -10 -24 -30 -53 -42 -64 -13 -10 -20 -15 -16 -10 5 5 -2 14
-15 21 -13 6 -22 20 -21 33 0 12 -2 22 -5 22 -3 0 -6 26 -6 58 0 56 1 57 17
38 21 -25 23 -10 4 30 -18 38 -10 95 12 87 11 -5 14 -2 10 9 -4 8 -3 39 1 69
5 43 10 54 24 53 14 -2 17 4 13 27 -3 23 -1 29 12 27 10 -2 20 7 26 24 8 23 6
30 -15 48 -16 13 -18 18 -6 14 19 -7 21 -1 8 24 -10 17 -22 66 -20 78 0 4 -5
11 -13 15 -9 6 -10 9 -1 9 7 0 10 7 7 15 -5 11 0 13 23 6 33 -9 63 -4 63 11 0
6 -11 8 -25 6 -17 -4 -29 0 -35 11 -9 15 -11 14 -20 -1 -6 -10 -18 -18 -26
-18 -8 0 -12 5 -9 11 4 6 -2 13 -14 16 -29 7 -26 23 4 23 14 0 24 5 23 12 -2
7 7 14 20 16 12 2 22 8 22 14 0 8 -47 5 -80 -5 -3 -1 -6 2 -7 7 -1 5 -7 12
-14 17 -7 4 -13 16 -14 27 -1 17 1 18 27 4 16 -8 41 -12 55 -9z m2118 -83 c0
-7 92 -13 208 -14 106 -1 127 -4 127 -16 0 -12 2 -13 9 -1 11 17 71 22 135 10
32 -6 53 -6 60 1 13 13 26 13 26 0 0 -5 -7 -10 -16 -10 -8 0 -13 -4 -10 -9 3
-4 -8 -7 -24 -5 -16 2 -32 -1 -35 -6 -4 -6 8 -11 27 -11 18 -1 41 -2 50 -3 34
-2 19 -21 -32 -38 -42 -14 -155 -26 -280 -30 -8 0 -42 -9 -74 -20 -54 -19 -60
-19 -68 -4 -8 15 -11 15 -31 1 -12 -8 -33 -14 -47 -14 -23 2 -23 2 -2 6 22 4
32 23 11 23 -5 0 -7 5 -4 10 3 6 -3 10 -14 10 -12 0 -20 -3 -20 -7 4 -23 -3
-35 -15 -30 -8 3 -37 2 -65 -2 -55 -9 -64 -2 -70 55 -1 12 -37 27 -58 25 -32
-4 -8 16 32 28 25 7 49 20 54 28 8 16 60 30 101 27 14 -1 25 -3 25 -4z m-2840
-556 c-75 -63 -89 -76 -72 -71 9 4 17 4 17 2 0 -9 -24 -48 -42 -69 -10 -11
-20 -28 -24 -38 -3 -10 -10 -18 -15 -18 -6 0 -8 -4 -5 -8 2 -4 -1 -39 -9 -77
-28 -148 -29 -201 -6 -240 11 -19 17 -35 12 -35 -4 0 -23 33 -42 73 -30 64
-34 81 -34 157 0 78 3 91 37 161 48 99 141 187 198 188 9 0 3 -9 -15 -25z
m-2842 -145 c15 1 36 -3 47 -9 13 -7 34 -7 66 0 27 6 50 7 53 2 10 -15 53 -22
73 -11 12 7 18 6 18 -2 0 -6 7 -8 16 -5 8 3 13 2 10 -3 -6 -10 24 -25 32 -16
3 3 0 5 -6 5 -7 0 -12 4 -12 8 0 4 19 9 43 11 34 2 40 0 30 -10 -19 -19 -16
-38 5 -34 9 2 21 4 26 4 5 1 3 8 -4 16 -7 9 -10 18 -6 22 3 3 6 1 6 -5 0 -7 7
-12 16 -12 9 0 12 -5 8 -11 -5 -9 1 -10 20 -5 32 8 55 -2 35 -15 -11 -7 -10
-9 4 -10 26 -2 31 -4 44 -12 6 -4 18 -4 26 -1 8 3 25 -3 36 -13 12 -10 23 -16
24 -15 1 2 20 -3 42 -11 34 -13 69 -22 168 -42 24 -5 21 4 -5 16 -18 7 -14 9
21 5 24 -2 47 -9 50 -15 4 -6 29 -11 56 -12 28 -1 68 -10 90 -20 61 -28 136
-49 177 -49 21 0 57 -4 80 -10 108 -24 145 -31 177 -35 19 -2 44 -8 55 -14 12
-6 68 -17 125 -25 106 -16 152 -37 122 -55 -23 -15 -5 -41 28 -41 16 0 33 -5
36 -11 4 -5 12 -8 18 -6 7 2 42 -4 79 -14 37 -11 88 -19 112 -19 25 0 48 -4
51 -10 8 -12 -10 -12 -100 0 -104 15 -138 21 -155 30 -16 8 -79 2 -95 -10 -17
-13 -70 -19 -85 -10 -10 6 -6 10 16 15 56 13 60 15 44 26 -13 8 -13 11 3 20 9
5 17 14 17 19 0 12 -89 51 -100 45 -5 -3 -11 -1 -15 5 -3 5 -28 7 -60 4 -43
-5 -55 -3 -55 7 0 11 -2 11 -9 0 -8 -12 -12 -12 -25 -2 -14 12 -16 10 -16 -8
0 -12 6 -21 14 -21 8 0 27 -5 43 -12 28 -12 38 -15 60 -17 6 -1 9 -10 6 -22
-4 -14 -11 -18 -22 -14 -9 4 -44 9 -79 11 -34 2 -68 7 -74 10 -7 4 -34 6 -60
5 -29 -1 -48 2 -48 8 0 6 9 11 20 11 11 0 20 5 20 10 0 6 -30 10 -71 10 -62 0
-70 2 -67 18 2 10 11 16 23 14 17 -2 17 -1 5 7 -9 6 -38 8 -69 4 -40 -4 -52
-3 -47 5 4 7 3 12 -3 12 -16 0 -65 -23 -73 -35 -5 -6 -8 -5 -8 3 0 6 -5 12
-12 12 -6 0 -19 7 -28 15 -11 10 -42 17 -84 19 -37 2 -72 8 -77 13 -6 6 -29 7
-57 3 -50 -8 -118 8 -77 18 11 2 23 9 28 16 5 8 9 7 16 -2 9 -15 42 -13 53 3
5 6 8 6 8 -1 0 -15 83 -11 88 4 3 11 -3 13 -50 16 -9 1 -20 4 -24 8 -4 4 -13
3 -21 -3 -10 -9 -13 -8 -13 1 0 8 -9 10 -27 6 -20 -5 -24 -4 -14 3 24 16 -4
38 -57 46 -26 4 -55 11 -65 17 -26 14 -145 18 -176 7 -21 -8 -29 -7 -41 8 -8
10 -23 17 -32 15 -10 -2 -18 2 -18 8 0 7 -8 9 -20 5 -11 -3 -20 -2 -20 3 0 6
-15 9 -34 8 -19 -1 -32 3 -29 8 4 5 -5 6 -21 2 -14 -3 -37 -9 -51 -12 -18 -5
-25 -3 -23 7 4 17 -56 29 -145 30 -60 0 -65 2 -52 15 18 19 20 31 2 16 -14
-12 -118 -19 -134 -9 -6 4 -18 4 -27 1 -9 -4 -18 0 -22 9 -5 13 -9 14 -24 5
-21 -13 -70 3 -70 22 0 8 43 9 148 4 81 -4 160 -6 175 -5z m-818 -69 c-3 -5 2
-10 12 -11 10 0 30 -2 46 -4 15 -2 27 1 27 6 0 5 11 9 25 9 16 0 25 -6 25 -16
0 -8 4 -13 10 -9 5 3 7 12 3 20 -4 11 2 15 22 15 15 0 24 -4 20 -10 -3 -5 0
-10 7 -11 7 -1 2 -5 -12 -9 -20 -6 -15 -8 25 -9 28 -1 57 -5 65 -11 9 -5 -100
-9 -291 -9 -168 1 -311 4 -318 9 -9 5 -10 13 -5 21 6 10 32 14 89 14 44 0 82
-3 85 -7 3 -4 24 -1 45 7 47 17 129 20 120 5z m4500 -430 c11 -5 17 -9 13 -11
-23 -5 -29 -7 -44 -8 -14 -1 -14 -3 0 -16 20 -21 132 -48 164 -40 26 6 26 6 7
-9 -19 -15 -19 -15 7 -16 30 0 78 -19 78 -30 0 -10 -99 9 -136 26 -17 8 -43
13 -58 10 -21 -4 -26 -1 -22 9 3 10 -13 16 -64 25 -37 6 -77 13 -87 15 -10 2
-42 6 -70 10 -29 4 -53 12 -53 19 0 8 30 10 101 8 65 -3 105 0 112 7 13 13 24
13 52 1z m-1875 -35 c6 -7 33 -17 58 -20 62 -9 152 -45 152 -62 0 -7 12 -15
28 -18 105 -22 127 -37 116 -79 -7 -28 -10 -29 -67 -20 -30 5 -41 13 -53 40
-13 28 -24 35 -55 40 -21 4 -46 14 -57 24 -31 30 -74 47 -132 55 -30 4 -61 12
-67 17 -7 6 -22 8 -33 5 -11 -3 -22 -1 -25 3 -8 13 27 17 56 6 32 -12 72 0 49
14 -13 8 -13 10 1 10 9 0 22 -7 29 -15z m1672 -326 c-2 -8 -1 -11 3 -8 3 4 25
2 48 -3 51 -11 97 -19 117 -20 37 0 186 -31 197 -40 7 -6 20 -8 28 -4 20 7 68
-11 60 -24 -3 -5 -12 -7 -20 -3 -8 3 -15 0 -15 -6 0 -6 6 -11 14 -11 9 0 12
-7 9 -22 -4 -19 -3 -20 6 -8 6 8 11 10 11 4 0 -6 -7 -17 -15 -24 -9 -7 -15 -8
-15 -2 0 15 -32 24 -40 12 -7 -11 -41 -9 -73 5 -9 4 -26 5 -37 2 -11 -3 -20
-1 -20 4 0 5 9 9 20 9 11 0 20 5 20 10 0 6 -7 10 -15 10 -8 0 -15 5 -15 11 0
5 -4 8 -10 4 -5 -3 -18 3 -29 14 -11 11 -21 18 -23 16 -2 -2 -21 -6 -41 -8
-29 -3 -37 -1 -33 9 3 9 -2 14 -14 14 -11 0 -20 5 -20 10 0 6 -9 10 -20 10
-11 0 -20 -7 -20 -15 0 -19 -14 -19 -33 0 -13 13 -16 13 -21 -1 -5 -13 -9 -14
-20 -5 -11 9 -17 9 -27 -2 -11 -11 -17 -11 -41 1 -16 7 -35 11 -43 8 -8 -3
-17 0 -21 6 -4 6 -3 8 2 5 6 -3 15 3 22 13 7 11 8 21 2 25 -5 3 -13 -3 -19
-12 -9 -16 -10 -16 -11 5 0 22 3 23 53 18 28 -3 59 -1 67 4 19 12 36 6 32 -11z
m1104 -174 c-23 -35 -20 -46 13 -43 17 1 28 7 27 16 -1 9 9 16 22 17 12 1 22
-3 22 -8 0 -5 7 -7 15 -3 8 3 15 1 15 -4 0 -12 43 -9 52 5 5 6 8 2 8 -8 0 -11
4 -15 12 -11 7 5 8 3 4 -5 -5 -7 -11 -10 -14 -7 -3 3 -14 -8 -25 -26 -18 -30
-20 -31 -32 -14 -12 16 -14 15 -17 -16 -3 -30 -6 -33 -33 -30 -23 2 -26 0 -15
-8 12 -8 11 -10 -7 -10 -24 0 -29 10 -14 26 6 5 2 18 -9 32 l-19 23 6 -36 c4
-23 2 -35 -6 -35 -6 0 -11 7 -11 15 0 8 -7 15 -16 15 -8 0 -12 5 -9 10 8 13
-8 18 -67 23 -27 2 -48 0 -48 -5 0 -5 -5 -6 -11 -3 -17 11 -5 28 22 31 69 9
99 17 99 28 0 17 29 56 42 56 6 0 3 -11 -6 -25z m-1596 -36 c10 -34 9 -44 -5
-59 -11 -13 -13 -20 -5 -25 6 -4 10 -17 9 -28 -4 -27 18 -70 31 -62 9 6 6 24
-12 62 -6 11 -8 27 -5 35 3 8 9 3 16 -14 11 -29 25 -36 36 -17 4 6 13 8 21 5
20 -8 55 30 57 61 1 15 8 28 16 31 10 3 12 -2 9 -22 -3 -14 -1 -26 3 -26 5 0
9 -5 9 -11 0 -5 -5 -7 -11 -3 -7 4 -10 1 -7 -6 5 -17 30 -26 26 -10 -5 21 20
22 31 1 8 -15 7 -23 -4 -34 -22 -23 -13 -89 14 -99 11 -4 21 -12 21 -18 0 -7
-6 -8 -19 0 -28 15 -29 14 -29 -30 0 -22 3 -40 8 -40 12 0 20 28 14 45 -5 13
-2 14 21 5 14 -5 32 -10 38 -9 7 0 4 4 -6 7 -15 6 -16 10 -4 26 7 10 25 19 40
19 29 2 38 17 11 17 -13 0 -15 9 -13 44 2 24 1 42 -3 39 -5 -2 -8 3 -8 11 0 8
5 18 10 21 6 3 10 1 10 -4 0 -6 4 -11 10 -11 5 0 7 6 4 14 -3 8 0 17 7 22 7 4
10 3 6 -3 -4 -6 0 -16 8 -23 13 -11 14 -10 10 2 -5 12 0 14 19 11 20 -4 26 -1
27 13 0 11 3 14 6 7 6 -16 39 -17 48 -3 4 6 10 8 15 5 5 -3 11 -1 14 4 4 5 20
5 40 -1 24 -8 33 -15 28 -26 -4 -12 0 -14 16 -10 23 6 37 -13 21 -29 -6 -6 -4
-15 6 -23 15 -13 17 -10 15 26 -3 56 -1 64 11 64 5 0 7 -5 3 -11 -5 -8 -1 -8
14 0 34 18 38 -8 6 -36 -23 -19 -26 -26 -14 -33 11 -7 12 -13 2 -35 l-13 -27
39 31 c25 19 40 39 40 53 0 40 20 78 41 78 11 0 24 7 28 15 5 9 17 12 30 9 19
-5 20 -9 11 -35 -5 -16 -14 -30 -19 -30 -5 -1 -15 -2 -21 -3 -7 0 -19 -19 -26
-41 -7 -22 -17 -42 -23 -45 -5 -4 -6 -21 -3 -38 4 -17 10 -29 14 -27 5 3 10
-1 13 -7 7 -19 26 2 30 32 3 17 11 26 26 28 21 3 22 1 16 -27 -4 -21 -3 -31 5
-31 6 0 8 5 5 11 -4 6 -1 10 6 8 25 -3 39 1 39 11 0 6 -7 10 -15 10 -9 0 -15
9 -15 23 l0 22 20 -25 c21 -27 26 -60 10 -60 -5 0 -10 -5 -10 -11 0 -8 5 -8
15 1 8 7 15 22 15 34 0 11 6 28 13 38 12 15 14 13 26 -13 7 -16 10 -33 7 -38
-4 -5 -2 -12 4 -16 6 -4 7 -11 4 -17 -4 -7 -2 -8 4 -4 6 4 21 2 33 -5 17 -9
20 -8 17 3 -2 7 -14 17 -26 23 -12 5 -22 13 -22 17 0 13 28 9 32 -3 8 -24 48
10 48 40 0 33 23 47 40 26 8 -9 21 -13 36 -9 24 6 34 -9 14 -21 -5 -3 -10 -13
-10 -21 0 -8 5 -12 10 -9 6 4 8 11 5 16 -4 5 4 9 16 9 16 0 20 5 16 20 -6 23
17 52 36 44 7 -2 14 -18 15 -35 2 -26 -1 -30 -20 -27 -18 2 -24 -2 -26 -23 -3
-23 0 -26 27 -24 17 1 32 -3 32 -9 1 -6 2 -18 3 -26 0 -8 7 -14 14 -12 10 2
11 -4 7 -19 -4 -12 -8 -28 -9 -35 -1 -7 -6 -17 -10 -21 -4 -4 -7 -3 -6 2 1 6
2 20 1 33 -1 21 -3 22 -23 10 -22 -12 -28 -14 -47 -17 -5 0 -12 -11 -16 -23
l-7 -23 -7 25 -7 25 -7 -27 c-4 -16 -12 -28 -17 -28 -5 0 -7 7 -4 15 4 10 0
15 -11 15 -9 0 -13 5 -10 10 4 6 11 7 17 4 7 -4 8 -2 4 4 -10 16 -33 15 -39 0
-2 -8 -8 -9 -13 -4 -5 5 -4 11 4 13 14 5 16 43 2 43 -5 0 -10 -8 -10 -19 0
-10 -8 -25 -17 -32 -11 -10 -14 -10 -9 -1 6 10 -6 17 -16 10 -2 -1 -14 5 -28
12 -35 19 -52 18 -72 -5 -16 -18 -17 -18 -18 -2 0 21 -14 22 -33 2 -12 -12
-16 -12 -20 -1 -3 7 -17 16 -32 18 -22 5 -26 2 -23 -16 2 -14 9 -20 22 -18 15
3 16 1 5 -11 -12 -13 -17 -13 -38 6 -13 12 -21 16 -16 8 5 -9 3 -12 -6 -9 -8
3 -13 10 -12 16 3 12 -80 27 -96 17 -6 -3 -11 -1 -11 5 0 6 -6 10 -12 9 -7 -1
-21 1 -31 6 -9 4 -23 3 -30 -3 -14 -11 -61 -6 -65 8 -2 6 -7 8 -12 5 -4 -3 -6
4 -3 15 6 24 -12 27 -21 4 -10 -25 -7 -66 4 -59 6 3 10 1 10 -4 0 -13 -3 -13
-24 -5 -9 3 -16 15 -16 25 0 10 -4 19 -10 19 -5 0 -7 7 -4 15 3 8 9 14 12 13
20 -2 22 4 7 18 -14 15 -14 17 2 30 10 7 23 14 29 14 21 0 42 43 33 68 -8 22
-29 31 -29 12 0 -5 -4 -10 -10 -10 -5 0 -10 6 -10 14 0 9 -10 13 -27 12 -38
-2 -53 -13 -46 -33 4 -11 3 -14 -5 -9 -17 10 -14 -15 3 -38 8 -11 11 -24 6
-30 -17 -23 -20 -45 -6 -39 19 7 41 -45 25 -61 -6 -6 -10 -6 -10 -1 0 15 -149
12 -155 -2 -2 -7 -16 -13 -30 -13 -18 0 -24 4 -19 13 6 10 4 10 -7 0 -17 -17
-29 -16 -29 0 0 15 -49 35 -81 33 -13 -1 -23 -7 -22 -14 2 -7 -4 -9 -14 -5
-13 5 -15 2 -11 -15 6 -23 -6 -30 -18 -11 -3 6 -15 9 -25 6 -11 -3 -17 -2 -14
3 3 4 -2 13 -9 19 -18 15 -34 -5 -17 -22 15 -15 14 -27 -1 -27 -7 0 -23 15
-35 32 l-22 31 3 -28 c5 -45 -43 -78 -58 -40 -3 8 -11 15 -17 15 -8 0 -7 -6 3
-17 8 -10 15 -28 16 -41 1 -19 -2 -20 -18 -12 -26 14 -34 30 -16 30 13 0 14 4
4 25 -6 14 -14 21 -18 15 -4 -6 -20 -8 -39 -4 -23 5 -31 11 -28 23 3 12 -4 16
-27 17 -17 0 -40 4 -51 9 -16 7 -15 4 5 -13 14 -12 20 -21 13 -22 -18 0 -45
31 -39 46 3 9 -2 14 -13 14 -11 0 -21 -6 -24 -12 -3 -10 -8 -10 -16 -2 -9 8
-23 8 -53 -3 -31 -11 -43 -11 -55 -2 -11 10 -15 8 -19 -8 -4 -16 -12 -19 -37
-17 -18 3 -39 6 -48 9 -9 3 -22 -2 -30 -12 -12 -15 -12 -16 4 -10 9 3 17 2 17
-4 0 -5 -19 -8 -46 -5 -39 4 -46 1 -54 -17 -6 -16 -9 -17 -9 -5 -1 9 -14 21
-31 27 -33 11 -41 22 -11 14 10 -3 22 0 25 6 4 6 1 11 -7 11 -8 0 -22 10 -30
23 -15 22 -16 22 -10 1 5 -24 -12 -64 -28 -64 -6 0 -6 6 0 19 11 20 5 31 -16
31 -7 0 -13 -11 -13 -26 0 -14 -4 -23 -10 -19 -5 3 -10 15 -10 27 0 16 -5 19
-25 16 -14 -3 -25 -1 -25 4 0 13 -26 38 -39 38 -15 0 -14 -13 2 -29 10 -11 8
-11 -11 -2 -17 9 -27 9 -36 2 -18 -15 -43 -4 -49 20 -5 18 -37 28 -37 11 0
-10 38 -42 50 -42 6 0 10 -5 10 -10 0 -6 -13 -4 -29 5 -28 14 -30 14 -28 -5 1
-11 11 -21 25 -25 23 -6 24 -7 7 -25 -13 -15 -21 -17 -31 -9 -7 5 -25 9 -40 7
-21 -2 -31 3 -39 19 l-11 22 -26 -30 c-18 -20 -28 -25 -32 -17 -4 7 -4 3 -2
-10 3 -17 1 -22 -9 -18 -9 3 -12 0 -9 -8 3 -8 -3 -12 -17 -12 -12 1 -24 -6
-26 -14 -4 -13 -3 -13 6 0 9 13 12 12 24 -4 8 -11 12 -29 9 -40 -4 -17 -2 -19
9 -8 17 16 26 15 33 -4 3 -8 2 -12 -3 -9 -5 3 -12 1 -15 -4 -3 -5 2 -12 11
-15 12 -5 13 -10 6 -17 -13 -13 22 -59 45 -59 9 0 12 3 9 7 -4 3 -2 12 4 19 7
9 6 19 -3 34 -11 17 -11 22 2 30 8 5 20 8 27 6 6 -3 22 4 34 15 26 22 54 9 30
-13 -11 -10 -13 -10 -7 0 13 22 -8 13 -32 -15 -19 -23 -25 -25 -32 -13 -13 21
-12 3 1 -21 10 -20 11 -20 24 -2 8 10 15 13 15 7 0 -6 -6 -17 -14 -24 -9 -7
-13 -23 -11 -41 3 -28 2 -29 -31 -26 -19 3 -34 0 -34 -5 0 -5 -4 -7 -9 -3 -5
3 -17 -2 -25 -11 -14 -13 -16 -13 -16 -1 0 9 -6 18 -12 20 -10 4 -9 8 2 16 8
5 11 13 7 17 -4 4 -2 13 4 20 6 8 7 19 1 31 -11 21 -29 62 -35 83 -3 9 -6 4
-7 -10 0 -14 -7 -38 -15 -55 -9 -18 -13 -21 -9 -8 3 12 1 30 -4 40 -13 25 -3
93 14 93 7 0 19 10 25 23 9 18 9 20 -2 9 -7 -6 -21 -12 -31 -12 -10 0 -18 -7
-18 -16 0 -8 -5 -12 -10 -9 -7 4 -7 13 0 26 14 25 2 24 -27 -3 -23 -22 -33
-12 -11 10 9 9 8 12 -5 12 -9 0 -17 4 -17 8 0 5 14 6 31 4 20 -3 34 0 40 9 7
11 9 10 9 -5 0 -14 5 -17 23 -12 12 3 30 6 39 6 14 0 13 5 -8 25 -25 26 -49
32 -58 16 -3 -5 -16 -11 -28 -14 l-23 -6 23 17 23 18 -43 1 c-24 1 -60 2 -80
3 -38 1 -49 12 -26 26 8 5 6 10 -5 19 -14 10 -12 13 18 25 60 24 39 38 -34 24
-25 -5 -29 -9 -20 -20 12 -15 9 -17 -13 -9 -28 11 0 135 30 135 15 0 15 2 2
10 -9 6 -10 10 -3 10 6 0 14 9 18 19 3 11 12 22 20 25 9 3 12 0 8 -10 -3 -7
-9 -14 -13 -14 -4 0 -10 -16 -12 -35 -2 -19 0 -35 4 -35 4 0 8 5 8 10 0 6 4
10 9 10 6 0 4 -12 -4 -27 -15 -28 -11 -48 4 -24 5 7 14 10 20 7 7 -5 11 5 11
28 0 38 12 53 27 33 10 -13 10 -73 0 -84 -14 -13 -6 -23 18 -23 25 0 25 0 10
33 -16 32 -16 32 2 9 22 -27 44 -22 63 14 7 13 15 22 17 20 3 -2 -1 -15 -8
-28 -16 -28 -20 -48 -10 -48 4 0 13 6 20 13 11 10 13 10 7 0 -5 -9 1 -13 19
-13 14 0 24 3 21 8 -2 4 2 18 10 32 14 25 14 25 11 -10 -2 -27 2 -35 18 -38
l20 -4 -20 16 c-20 15 -19 15 4 9 17 -4 28 -1 37 12 13 17 14 16 14 -13 0 -37
18 -42 45 -12 18 19 17 20 -3 20 -21 0 -21 1 -5 20 20 22 22 23 42 11 11 -7
11 -13 1 -32 -7 -13 -18 -27 -24 -31 -7 -5 -4 -8 6 -8 11 0 24 14 32 33 8 17
15 26 15 19 1 -9 9 -7 27 7 41 32 67 27 44 -9 -9 -13 -11 -13 -19 0 -6 8 -13
11 -18 7 -4 -5 -2 -12 5 -16 7 -4 10 -15 6 -26 -7 -17 -8 -17 -21 1 -7 10 -13
14 -13 8 0 -5 -4 -3 -9 4 -6 10 -10 9 -14 -7 -3 -12 0 -21 6 -22 23 -2 32 -5
56 -13 15 -5 27 -4 35 4 8 10 7 12 -7 7 -11 -4 -16 -3 -12 3 10 17 48 12 42
-5 -6 -14 4 -14 76 0 9 2 17 -1 17 -7 0 -5 5 -6 10 -3 6 3 10 11 10 16 0 6 -4
8 -8 5 -4 -3 -6 29 -4 70 3 74 3 75 -20 72 -15 -2 -23 -10 -23 -23 0 -14 6
-19 18 -17 19 3 21 -6 8 -27 -8 -12 -12 -12 -24 -2 -13 10 -15 9 -10 -8 7 -26
-15 -28 -43 -5 -10 8 -13 13 -7 9 8 -4 11 -1 7 9 -3 8 2 26 11 39 13 20 13 26
3 30 -8 3 -1 9 16 16 17 7 32 8 35 3 3 -5 17 -13 31 -17 14 -4 28 -13 32 -19
5 -7 8 -4 8 7 0 15 2 16 14 5 10 -10 11 -18 4 -33 -10 -19 -9 -19 7 -3 15 14
16 20 6 32 -8 10 -8 16 -1 19 6 3 5 4 -2 3 -7 -2 -21 1 -32 6 -13 7 -16 7 -12
-1 8 -13 -1 -13 -29 -1 l-20 8 20 8 c11 4 23 12 27 18 5 7 12 4 21 -8 9 -12
20 -17 31 -13 9 4 16 2 16 -4 0 -6 4 -8 8 -5 4 2 14 1 22 -4 12 -8 12 -12 2
-22 -10 -10 -15 -10 -23 2 -7 11 -8 6 -3 -15 4 -16 11 -31 16 -33 4 -2 8 -8 8
-13 0 -6 -5 -7 -11 -3 -16 10 -29 -16 -29 -60 0 -22 -3 -37 -6 -33 -4 3 -6 24
-6 47 0 22 -4 40 -9 40 -6 0 -7 -5 -3 -11 5 -8 -1 -10 -20 -7 -18 4 -26 1 -26
-9 0 -8 4 -12 8 -9 4 3 7 -8 6 -24 -2 -35 7 -39 94 -39 35 0 67 -3 72 -6 4 -3
11 3 14 12 6 15 8 15 16 3 6 -9 5 -17 -3 -23 -7 -4 35 -6 92 -3 72 2 108 8
115 17 20 25 55 39 95 39 l40 0 -5 38 -4 37 13 -35 c13 -33 16 -35 63 -35 27
0 52 -4 56 -10 4 -6 13 -2 22 10 15 20 15 20 16 -2 0 -16 8 -24 28 -29 15 -4
32 -10 37 -14 24 -17 81 -7 68 12 -13 22 -11 238 3 238 2 0 8 -18 14 -41z
m-2795 -85 c-3 -19 -13 -38 -20 -41 -8 -3 -12 -9 -9 -14 3 -5 -4 -9 -14 -9
-22 0 -56 -45 -47 -60 3 -6 0 -11 -7 -11 -7 -1 1 -4 17 -8 35 -8 67 -3 59 10
-3 5 0 9 5 9 6 0 11 -4 11 -10 0 -5 5 -10 11 -10 5 0 8 4 5 9 -3 4 6 6 20 3
22 -4 24 -1 21 19 -2 13 -2 19 0 12 2 -6 11 -14 19 -17 11 -4 12 -2 4 14 -13
24 -13 33 0 25 6 -4 17 -1 25 5 11 10 15 10 15 1 0 -7 4 -10 9 -7 5 3 11 -1
15 -9 3 -9 0 -15 -9 -15 -8 0 -15 5 -15 10 0 6 -4 10 -10 10 -5 0 -10 -12 -10
-26 0 -19 4 -25 15 -20 8 3 15 1 15 -4 0 -6 13 -10 29 -10 16 0 34 -7 41 -15
20 -24 28 -7 31 67 0 14 3 15 14 5 9 -9 10 -14 1 -19 -16 -11 33 -10 74 2 25
7 43 21 59 47 12 22 19 28 16 16 -8 -28 9 -30 27 -4 11 16 15 16 26 5 12 -13
8 -18 -11 -15 -14 2 -20 -30 -8 -42 11 -11 91 -17 91 -7 0 10 -52 29 -65 24
-7 -3 -16 -1 -19 4 -3 5 0 10 7 9 6 0 28 1 49 1 32 2 35 5 31 23 -5 16 -2 20
8 17 8 -3 13 -11 11 -17 -4 -21 26 -11 48 17 14 17 19 20 16 9 -5 -16 -2 -18
27 -12 17 4 35 13 39 19 6 8 8 7 8 -1 0 -7 9 -13 20 -13 11 0 20 6 21 13 0 10
2 10 6 0 6 -18 43 -16 43 1 0 19 40 28 47 10 3 -9 13 -12 24 -9 23 7 59 -2 59
-16 0 -5 -7 -9 -15 -9 -8 0 -15 -5 -15 -10 0 -7 6 -7 20 0 11 6 20 8 20 5 0
-4 14 4 31 16 26 18 33 19 41 8 7 -11 11 -11 15 -1 7 17 26 15 20 -2 -8 -21
34 -28 54 -10 13 12 22 13 38 5 11 -6 27 -11 36 -11 19 0 54 38 55 60 0 12 3
11 17 -3 16 -16 16 -18 0 -29 -9 -7 -18 -22 -20 -33 -4 -28 -17 -46 -28 -39
-5 3 -7 9 -5 13 3 3 -4 7 -14 7 -10 0 -16 -4 -14 -8 8 -12 -14 -10 -36 4 -10
7 -23 9 -27 5 -4 -5 -1 -12 6 -16 11 -7 9 -11 -5 -20 -17 -9 -17 -10 -2 -11
17 0 34 -17 25 -26 -9 -9 -59 -15 -53 -6 6 10 -51 25 -64 17 -4 -2 -13 8 -20
23 -9 20 -14 23 -19 12 -6 -15 -51 -24 -51 -10 0 4 -6 10 -14 13 -10 4 -13 -1
-10 -16 5 -22 4 -22 -7 0 -9 18 -20 22 -44 20 -18 -1 -31 -5 -28 -10 7 -11
-20 -34 -35 -29 -6 2 -15 -3 -18 -12 -3 -9 -15 -16 -26 -16 -10 0 -17 4 -14 9
3 4 -2 17 -10 27 -15 18 -15 18 -9 -8 3 -16 1 -28 -5 -28 -5 0 -10 -9 -10 -20
0 -13 -7 -20 -18 -20 -11 0 -24 -10 -31 -22 -6 -13 -9 -15 -6 -5 3 10 1 15 -5
12 -6 -3 -10 -13 -10 -21 0 -9 -6 -14 -12 -11 -7 2 -12 10 -10 16 1 6 -2 11
-6 11 -5 0 -9 7 -9 15 0 8 6 15 14 15 7 0 13 5 13 11 0 5 6 7 13 3 6 -4 1 4
-12 17 -17 18 -25 21 -28 10 -3 -7 -14 -22 -24 -32 -12 -12 -14 -19 -6 -22 9
-3 9 -8 0 -18 -11 -11 -13 -11 -13 1 0 33 -25 -12 -29 -52 -2 -16 -41 -8 -41
8 0 10 6 14 14 11 10 -4 13 -1 10 7 -3 7 3 22 13 32 17 17 17 17 -7 11 -19 -5
-29 -1 -43 16 -17 21 -18 21 -8 1 6 -12 7 -24 4 -28 -12 -12 -43 -6 -43 9 0
19 -32 15 -54 -8 -16 -16 -16 -18 8 -29 14 -6 26 -15 26 -20 0 -4 9 -8 20 -8
11 0 20 -6 20 -12 0 -8 -17 -14 -45 -16 -25 -1 -45 2 -45 8 0 5 7 10 15 10 12
0 24 19 13 20 -2 0 -33 3 -69 6 -61 6 -68 4 -88 -17 -21 -22 -23 -23 -32 -6
-6 9 -16 17 -24 17 -20 0 -30 -21 -14 -31 10 -6 11 -9 2 -9 -7 0 -12 -6 -10
-12 1 -8 -13 -13 -41 -13 -37 -1 -43 1 -39 17 6 22 -25 25 -43 3 -10 -13 -15
-12 -31 8 -10 12 -18 16 -19 10 0 -7 5 -13 10 -13 6 0 10 -6 10 -14 0 -15 -36
-31 -88 -40 -31 -5 -32 -4 -27 22 3 15 2 21 -1 15 -10 -21 -27 -14 -21 8 6 21
5 21 -11 3 -10 -11 -24 -34 -31 -51 -7 -18 -18 -33 -23 -33 -5 0 -6 5 -3 10 4
7 -3 9 -22 5 -25 -6 -26 -5 -10 8 23 19 22 26 -3 20 -11 -3 -27 0 -35 7 -11
10 -15 10 -15 0 0 -7 -10 -10 -27 -6 -65 13 -84 14 -113 6 -24 -7 -30 -5 -35
10 -4 11 -14 17 -30 16 -14 0 -25 -4 -25 -7 0 -3 -11 -4 -24 -2 -28 6 -25 35
3 32 9 -1 32 -1 53 0 32 1 36 3 30 23 -3 12 -7 17 -10 10 -4 -14 -32 -17 -32
-3 0 13 25 20 47 15 10 -3 27 2 38 10 18 14 18 15 3 16 -10 0 -18 5 -18 11 0
5 4 8 9 5 5 -3 12 1 15 10 3 8 2 13 -3 9 -8 -4 -21 32 -26 70 -2 14 46 65 56
59 4 -2 13 4 19 13 10 16 11 16 6 1 -6 -20 10 -34 18 -16 4 7 4 3 2 -9 -3 -14
1 -23 9 -23 16 0 37 24 33 40 -2 7 3 15 10 17 7 3 12 1 11 -4 -3 -12 12 -43
21 -43 4 0 11 7 14 16 4 10 2 13 -6 8 -7 -5 -8 -3 -4 5 5 7 13 10 20 8 8 -3
11 7 9 32 -2 20 0 30 3 24 9 -19 64 -17 64 3 0 18 20 14 31 -7 14 -26 22 -54
20 -67 -3 -20 42 -10 69 16 14 13 26 18 28 12 7 -20 22 -9 22 16 0 21 -4 25
-17 20 -13 -5 -11 -1 6 18 21 22 25 23 38 10 11 -10 13 -25 8 -50z m4183 -79
c0 -14 -4 -28 -9 -31 -5 -3 -9 -10 -9 -15 0 -6 4 -8 9 -5 10 6 25 -24 16 -32
-3 -3 -5 1 -5 8 0 10 -3 11 -11 3 -7 -7 -8 -17 -1 -28 6 -12 11 -14 16 -6 4 6
12 11 17 11 6 0 7 -4 4 -10 -10 -17 37 -11 57 7 10 9 18 27 18 40 0 23 15 32
22 13 2 -5 15 -11 30 -12 15 -1 24 -6 22 -10 -3 -5 -16 -5 -30 -2 -18 5 -24 2
-24 -10 0 -9 3 -15 8 -15 21 4 42 -2 42 -12 0 -6 -9 -8 -22 -3 -13 3 -20 3
-17 0 4 -4 -1 -24 -11 -44 -12 -24 -15 -39 -8 -43 6 -4 8 -13 6 -20 -3 -8 -11
1 -19 20 -12 28 -18 32 -41 27 -18 -4 -28 -1 -28 7 0 8 -2 9 -8 1 -4 -6 -18
-15 -31 -19 -18 -5 -22 -4 -16 6 4 8 -3 3 -14 -11 -11 -14 -21 -19 -21 -12 0
6 -8 12 -17 12 -15 0 -14 2 3 15 14 11 15 14 4 15 -12 0 -13 2 -1 9 10 7 11
10 1 16 -8 5 -18 1 -26 -10 -17 -23 -28 -14 -19 14 4 13 11 18 18 14 9 -5 9
-3 0 8 -8 10 -9 25 -4 45 5 16 10 23 11 17 2 -7 4 -17 5 -23 1 -5 3 -17 4 -26
1 -13 4 -14 16 -4 10 9 15 9 15 1 0 -6 5 -11 10 -11 7 0 7 6 0 20 -8 15 -8 20
2 20 9 0 13 12 12 37 -1 21 0 41 3 45 9 16 21 7 21 -17z m1329 -2 c-2 -10 -8
-28 -15 -40 -8 -14 -9 -24 -2 -28 5 -3 10 -12 10 -18 0 -7 -4 -6 -10 3 -5 8
-10 11 -10 5 0 -5 4 -16 9 -24 8 -12 12 -13 25 -1 14 11 16 10 10 -4 -3 -9 -1
-16 5 -16 6 0 11 5 11 12 0 9 3 8 13 -1 10 -11 9 -14 -1 -18 -6 -3 -10 -9 -6
-14 10 -16 24 -10 24 11 0 24 15 27 24 4 5 -14 8 -14 21 0 8 8 15 18 15 23 0
5 9 9 19 9 15 0 17 -3 9 -13 -5 -7 -8 -19 -5 -28 4 -10 0 -14 -11 -13 -9 1
-28 0 -41 0 -24 -2 -24 -2 -5 -17 24 -18 13 -19 -31 -1 l-34 15 10 -27 9 -27
-20 23 c-11 14 -24 20 -31 16 -9 -5 -10 -2 -6 10 6 16 3 17 -20 11 -15 -3 -31
-12 -36 -18 -5 -9 -12 -6 -22 7 -14 19 -16 19 -27 3 -7 -10 -24 -19 -37 -22
-12 -2 -29 -9 -36 -15 -9 -8 -17 -6 -29 5 -14 15 -15 19 -1 38 19 27 19 43 1
28 -8 -7 -17 -22 -20 -35 -5 -19 -11 -22 -42 -20 -45 4 -51 9 -34 29 11 13 10
14 -4 9 -10 -4 -16 -1 -16 9 0 20 17 31 25 17 9 -14 35 6 35 26 0 21 20 17 21
-3 1 -12 4 -10 9 7 6 19 8 20 9 6 1 -12 6 -16 17 -12 9 3 20 6 26 6 6 0 7 7 4
16 -3 8 -2 12 4 9 13 -8 13 -35 0 -35 -7 0 -7 -7 0 -20 6 -11 16 -17 22 -14 8
5 9 1 5 -10 -4 -10 -3 -15 3 -11 13 8 13 52 -1 60 -7 5 -6 12 4 23 8 10 18 27
22 40 4 13 9 21 12 18 3 -2 0 -21 -7 -41 -10 -29 -10 -39 0 -48 7 -7 10 -7 7
-2 -3 6 -1 17 4 25 6 11 8 5 4 -17 -4 -26 -2 -33 11 -33 12 0 15 6 10 24 -4
18 -1 25 14 29 11 3 20 1 20 -5 0 -5 5 -6 11 -2 8 4 7 9 -2 15 -11 6 -10 11 2
26 9 10 19 26 22 36 4 9 11 17 17 17 5 0 9 -8 7 -17z m-1790 -223 c-5 -58 5
-80 18 -40 3 11 10 20 15 20 10 0 3 -27 -12 -47 -5 -6 -6 -23 -2 -39 6 -24 8
-25 19 -11 7 10 20 17 29 17 9 0 16 6 16 13 0 6 10 23 21 37 17 20 20 21 14 5
-4 -11 -9 -27 -12 -36 -3 -9 -16 -22 -31 -28 -21 -10 -23 -14 -11 -22 11 -7
11 -11 1 -17 -10 -7 -8 -14 8 -32 11 -12 17 -27 14 -32 -7 -10 -33 20 -34 38
0 7 -7 15 -16 18 -11 4 -15 2 -11 -8 3 -8 -1 -22 -9 -33 -9 -10 -13 -13 -10
-6 4 6 1 15 -4 18 -8 5 -6 13 5 25 15 17 15 21 0 49 -16 31 -42 44 -31 15 3
-8 2 -12 -4 -9 -6 3 -10 1 -10 -4 0 -6 7 -11 16 -11 11 0 14 -6 9 -22 -9 -30
-33 -48 -53 -41 -14 5 -15 3 -4 -8 19 -20 14 -33 -5 -13 -10 10 -18 21 -18 25
0 4 -3 11 -7 15 -13 12 -9 34 5 30 6 -1 9 -1 4 1 -4 3 -5 9 -2 14 4 5 -1 6
-10 3 -8 -4 -22 -1 -30 6 -12 10 -18 10 -31 -1 -13 -10 -17 -10 -25 2 -5 9 -9
10 -9 2 0 -6 5 -15 10 -18 6 -3 10 -12 9 -18 0 -9 -2 -9 -6 1 -2 6 -16 12 -29
12 -13 0 -24 5 -24 11 0 5 4 7 10 4 6 -3 7 1 4 9 -3 9 1 23 10 31 15 15 16 15
16 0 0 -9 6 -15 13 -12 6 2 11 13 9 23 -2 16 1 15 17 -6 11 -14 23 -21 27 -17
4 4 13 2 21 -4 9 -9 13 -8 13 0 0 6 7 11 16 11 14 0 14 1 0 16 -21 21 -21 22
15 18 17 -2 27 0 24 6 -5 9 32 100 42 100 2 0 2 -27 0 -60z m-2977 -22 c0 -4
-5 -10 -12 -14 -7 -4 -8 -3 -4 4 4 7 3 12 -2 12 -6 0 -13 -12 -17 -27 -5 -20
-9 -24 -14 -13 -5 13 -10 13 -37 -1 -31 -15 -32 -16 -14 -39 16 -21 18 -21 27
-6 12 21 47 10 38 -12 -3 -8 0 -19 7 -24 8 -5 2 -8 -17 -8 -16 0 -25 -4 -19
-8 6 -4 4 -13 -8 -25 -18 -17 -18 -17 -12 9 6 25 5 25 -16 14 -12 -7 -35 -10
-51 -8 -16 3 -29 1 -29 -4 0 -5 -8 -12 -17 -15 -22 -9 -47 -32 -40 -39 2 -3
16 1 31 7 34 16 42 7 21 -25 -18 -27 -41 -36 -32 -12 4 11 -2 12 -31 5 -20 -4
-40 -7 -45 -6 -18 4 -18 -21 0 -26 10 -3 3 -5 -16 -6 -26 -1 -32 2 -27 15 3 8
-1 25 -9 38 -8 12 -12 26 -8 31 5 4 -1 5 -12 1 -11 -4 -16 -4 -13 0 4 4 3 15
-3 25 -8 16 -4 21 23 32 33 14 75 53 66 62 -4 4 -38 12 -60 14 -5 1 -8 8 -8
15 0 12 -6 13 -31 4 -16 -6 -33 -8 -36 -4 -11 11 3 16 45 18 27 1 42 6 42 14
0 7 4 16 10 19 6 3 7 -1 4 -9 -4 -10 -1 -16 7 -16 7 0 9 -3 6 -6 -3 -4 5 -16
19 -27 19 -14 28 -17 37 -8 13 13 67 15 67 3 0 -4 -5 -13 -12 -20 -7 -7 -8
-12 -4 -12 5 0 3 -7 -4 -15 -19 -23 6 -19 30 5 11 11 27 20 36 20 8 0 13 4 9
9 -3 5 1 16 9 24 8 8 13 17 10 20 -3 2 2 7 11 11 9 3 13 2 10 -4 -8 -12 -3
-12 29 0 19 7 26 17 26 37 l0 28 20 -25 c11 -14 20 -28 20 -32z m1131 6 c17
-21 36 -17 44 9 l8 22 4 -23 c3 -18 10 -23 23 -19 11 3 27 -1 37 -9 10 -7 13
-14 8 -14 -6 0 -16 5 -23 12 -9 9 -12 8 -12 -7 0 -11 -4 -16 -8 -10 -10 15
-62 11 -73 -5 -5 -8 -9 -23 -9 -34 0 -14 6 -17 24 -14 18 4 23 1 21 -11 -2 -9
-4 -20 -5 -26 -1 -5 -5 -2 -9 9 -6 16 -9 15 -23 -14 -14 -30 -17 -31 -27 -14
-10 17 -10 18 -11 1 0 -14 -3 -15 -19 -5 -15 9 -23 9 -35 -1 -17 -14 -20 -8
-17 31 2 20 -18 34 -23 16 -17 -54 -17 -55 -31 -21 -11 25 -11 37 -2 57 7 15
18 24 25 21 6 -2 12 0 12 5 0 6 -12 10 -27 10 -25 1 -26 2 -9 11 13 8 25 8 45
-2 14 -7 32 -11 39 -10 7 1 12 -9 12 -24 0 -17 -5 -25 -17 -25 -11 0 -13 -3
-8 -9 17 -17 60 -1 73 27 17 36 15 50 -8 62 -14 7 -20 7 -20 0 0 -5 -8 -10
-17 -9 -11 0 -13 3 -5 6 6 2 12 11 12 18 0 16 34 9 51 -11z m-2225 -82 c-5
-15 0 -17 36 -15 23 1 45 8 49 15 7 10 9 8 9 -5 0 -16 2 -16 25 -1 23 15 25
15 31 0 4 -11 13 -14 30 -10 36 9 29 -12 -8 -27 -38 -15 -48 -27 -41 -46 4 -9
-2 -12 -18 -11 -20 3 -23 -1 -21 -19 2 -16 -2 -23 -12 -23 -9 0 -16 -6 -16
-14 0 -8 -5 -18 -12 -22 -7 -4 -8 -3 -4 4 4 7 5 12 3 12 -9 0 -51 -75 -52 -90
0 -8 -8 -14 -17 -12 -9 1 -18 -6 -21 -18 -3 -11 -10 -20 -16 -20 -8 0 -9 6 -1
19 7 14 6 21 -3 24 -7 3 -2 12 15 26 18 15 30 36 34 60 6 38 44 78 44 46 0 -8
5 -15 11 -15 5 0 7 5 4 10 -3 6 -1 10 4 10 6 0 11 7 11 16 0 11 -5 14 -16 10
-12 -5 -15 -2 -10 10 4 12 2 15 -9 10 -9 -3 -15 0 -15 8 0 15 41 16 53 1 5 -6
7 -4 4 5 -2 8 -13 15 -25 15 -11 0 -24 4 -28 8 -10 9 -24 9 -23 0 4 -22 -2
-33 -13 -27 -10 6 -10 5 -1 -8 7 -8 10 -18 6 -21 -3 -4 0 -7 8 -7 15 -1 -39
-50 -55 -50 -4 0 -6 11 -4 25 3 14 1 28 -3 31 -5 3 -9 -9 -9 -26 0 -22 6 -33
20 -38 19 -7 19 -9 4 -27 -13 -17 -15 -17 -10 -3 7 24 -6 23 -21 0 -6 -11 -8
-25 -3 -32 5 -8 2 -19 -7 -28 -12 -12 -12 -16 -2 -23 16 -9 14 -11 -28 -26
-18 -6 -33 -7 -33 -2 0 5 4 9 10 9 5 0 7 7 4 15 -4 9 0 15 9 15 8 0 17 7 21
15 6 17 -7 19 -34 5 -30 -16 -35 8 -9 37 13 13 20 24 14 23 -17 -3 -55 12 -55
22 0 5 3 7 8 4 4 -2 16 3 27 11 19 14 19 15 -10 11 -20 -2 -37 2 -48 13 -17
16 -17 17 9 23 18 5 30 3 35 -6 7 -11 9 -11 9 0 0 9 7 11 21 7 15 -5 22 -2 26
14 4 14 12 20 26 17 27 -4 56 22 38 34 -14 8 -12 10 34 37 27 15 27 15 21 -5z
m5414 -23 c0 -5 5 -9 10 -9 6 0 10 7 10 15 0 8 5 15 10 15 6 0 10 -6 10 -14 0
-9 7 -12 19 -9 26 7 36 -14 12 -27 -12 -6 -18 -16 -15 -25 5 -11 2 -13 -10 -9
-21 8 -20 -5 4 -36 28 -36 24 -48 -5 -16 -14 15 -30 24 -35 21 -6 -3 -10 1
-10 9 0 9 -7 16 -15 16 -8 0 -15 -4 -15 -8 0 -5 -13 -8 -30 -7 -21 1 -30 -3
-30 -14 0 -13 -2 -14 -9 -2 -8 12 -12 11 -27 -3 -12 -13 -19 -14 -24 -5 -5 8
-10 4 -15 -11 l-7 -23 -17 20 c-9 11 -23 23 -31 25 -12 4 -10 7 7 16 19 10 23
9 28 -9 5 -16 10 -18 21 -8 8 6 14 17 14 25 0 7 5 16 12 20 7 5 9 0 6 -14 -6
-21 -5 -21 24 -6 19 10 28 21 24 30 -5 13 6 19 28 15 15 -3 37 22 32 35 -3 8
0 11 10 7 7 -3 14 -9 14 -14z m1074 -59 c6 0 17 5 24 12 9 9 13 6 20 -11 6
-16 2 -43 -12 -85 -25 -72 -24 -71 -33 -63 -3 4 -1 17 5 30 15 27 22 86 12 92
-4 3 -15 -6 -23 -18 -12 -18 -22 -23 -45 -19 -25 3 -31 -1 -41 -26 -7 -17 -10
-36 -6 -41 3 -6 1 -11 -4 -11 -6 0 -11 7 -11 15 0 16 -15 21 -23 8 -2 -5 -2
-2 -1 4 2 7 -4 17 -13 22 -15 8 -15 13 8 45 13 20 29 36 35 36 19 0 25 40 6
41 -11 0 -12 2 -4 6 6 2 12 11 12 19 0 12 4 12 19 2 26 -16 35 -56 19 -76 -12
-14 -11 -14 10 -1 17 11 22 24 24 59 l1 45 4 -42 c3 -26 9 -43 17 -43z m-3584
20 c0 -5 -7 -7 -15 -4 -18 7 -21 -27 -5 -57 16 -30 47 -23 72 16 13 20 31 35
42 35 19 0 19 0 1 -14 -16 -11 -17 -18 -8 -37 l12 -24 7 23 c10 33 24 27 24
-10 0 -18 -4 -28 -8 -22 -11 16 -92 5 -92 -12 0 -16 -16 -19 -25 -4 -3 6 -11
10 -16 10 -6 0 -8 -4 -4 -10 3 -5 -2 -18 -12 -29 -12 -15 -20 -18 -30 -10 -7
6 -20 9 -28 5 -10 -4 -15 1 -15 14 0 11 -8 28 -17 38 -17 16 -17 18 -1 34 10
10 19 13 26 6 16 -16 52 9 52 37 0 18 5 25 20 25 11 0 20 -4 20 -10z"/>
<path d="M1400 729 c0 -7 7 -17 15 -23 12 -9 12 -14 -6 -36 -20 -24 -21 -24
-16 -2 3 12 1 20 -4 16 -5 -3 -9 -16 -9 -30 0 -15 -6 -24 -15 -24 -8 0 -15 -4
-15 -10 0 -5 -5 -10 -11 -10 -6 0 -9 6 -6 13 3 8 2 20 -3 27 -6 9 -10 7 -15
-9 -3 -11 -12 -21 -20 -21 -7 0 -16 -11 -19 -25 -4 -14 -10 -25 -15 -25 -13 0
-24 34 -12 38 16 5 13 22 -3 22 -21 0 -30 -19 -27 -59 2 -43 4 -45 30 -32 16
9 28 8 50 -4 36 -18 49 -19 33 -3 -19 19 -14 30 7 18 24 -12 42 -13 22 -1 -8
5 -9 11 -3 15 6 3 13 -3 17 -14 3 -11 15 -20 25 -20 18 0 30 26 30 66 0 29 25
26 26 -3 1 -13 -2 -23 -7 -23 -5 0 -9 -6 -9 -12 0 -18 56 -20 70 -4 13 17 22
56 11 56 -4 0 -12 -5 -19 -12 -7 -7 -12 -8 -12 -2 0 6 5 15 12 22 9 9 9 12 -1
12 -9 0 -11 8 -8 21 4 16 3 18 -9 8 -11 -9 -14 -7 -14 10 0 13 -6 21 -17 21
-9 0 -14 3 -10 6 5 5 -28 44 -38 44 -3 0 -5 -5 -5 -11z"/>
</g>
</svg>
