<?xml version="1.0" standalone="no"?>
<!DOCTYPE svg PUBLIC "-//W3C//DTD SVG 20010904//EN"
 "http://www.w3.org/TR/2001/REC-SVG-20010904/DTD/svg10.dtd">
<svg version="1.0" xmlns="http://www.w3.org/2000/svg"
 width="800.000000pt" height="533.000000pt" viewBox="0 0 800.000000 533.000000"
 preserveAspectRatio="xMidYMid meet">
<metadata>
Created by potrace 1.15, written by Peter Selinger 2001-2017
</metadata>
<g transform="translate(0.000000,533.000000) scale(0.100000,-0.100000)"
fill="#000000" stroke="none">
<path d="M65 5320 c-3 -5 -19 -10 -36 -10 l-29 0 0 -684 0 -684 37 9 c21 4 46
18 56 31 9 13 34 40 54 60 29 29 37 44 37 72 0 20 4 36 8 36 4 0 8 18 8 39 0
22 9 55 20 74 20 33 104 107 122 107 5 0 21 9 37 21 15 11 45 24 65 29 37 8
38 7 52 -26 12 -30 19 -35 42 -32 25 3 27 6 24 47 -3 31 -1 41 8 36 8 -5 11 0
9 16 -4 27 17 62 43 72 11 4 18 17 18 32 0 15 5 24 13 22 9 -1 13 21 15 80 2
58 6 81 15 79 7 -1 9 -1 5 1 -13 8 -9 33 6 39 19 7 -19 48 -54 59 -14 4 -33
15 -44 24 -23 20 -47 66 -39 74 3 4 1 13 -6 21 -9 11 -9 25 0 60 8 33 8 54 0
77 -15 44 -14 52 10 78 19 21 28 22 73 16 28 -3 53 -10 56 -14 3 -4 25 -15 50
-25 68 -27 72 -32 50 -69 -47 -79 -49 -85 -34 -98 8 -6 14 -26 14 -45 0 -56
15 -62 147 -62 65 0 120 4 123 8 3 4 30 4 61 1 31 -4 69 -3 85 1 16 5 63 9
104 9 42 0 94 8 118 17 35 12 50 13 75 4 18 -6 61 -14 97 -17 36 -3 90 -8 121
-10 31 -3 92 -12 135 -20 85 -16 126 -23 190 -30 99 -11 228 -114 303 -244 41
-69 77 -103 90 -84 3 5 14 12 24 16 21 8 21 32 1 109 -18 72 -61 134 -194 278
-53 58 -102 115 -109 128 -16 30 -4 131 18 153 9 9 28 36 42 61 l26 44 76 1
c55 1 79 -2 88 -13 6 -8 17 -14 24 -14 7 0 18 -7 25 -15 7 -8 24 -15 39 -15
36 0 51 -17 44 -50 -4 -25 -2 -28 26 -32 25 -4 38 3 77 40 47 44 48 44 98 36
28 -4 65 -8 81 -10 17 -1 34 -3 39 -3 5 -1 6 -14 3 -31 -5 -23 -2 -32 12 -40
13 -7 20 -7 23 0 6 20 66 -10 80 -41 14 -31 28 -35 59 -19 11 7 19 7 19 1 0
-5 -5 -11 -12 -13 -15 -5 -11 -102 6 -138 8 -17 10 -41 4 -75 -10 -59 -16
-167 -22 -365 -3 -100 -9 -159 -20 -189 -9 -24 -18 -66 -21 -95 -2 -28 -6 -63
-9 -78 -2 -16 0 -30 5 -34 5 -3 9 -18 9 -33 0 -15 5 -42 11 -60 9 -25 8 -39
-5 -71 -11 -28 -14 -56 -9 -103 3 -36 1 -78 -5 -98 -6 -19 -14 -59 -17 -89 -6
-57 -33 -140 -45 -140 -4 0 -24 -12 -45 -26 -21 -14 -46 -26 -56 -27 -10 -1
-16 -4 -13 -8 2 -4 0 -10 -6 -14 -6 -3 -13 1 -16 9 -5 13 -10 13 -27 4 -12 -6
-27 -18 -32 -25 -6 -8 -27 -18 -45 -22 -66 -13 -65 -7 -66 -571 -1 -376 -6
-556 -18 -705 -9 -110 -19 -211 -22 -225 -3 -14 -9 -149 -13 -300 -10 -354 -7
-347 -161 -354 -41 -2 -96 -6 -121 -11 -31 -4 -49 -3 -53 4 -4 6 -32 11 -63
11 -31 0 -53 -3 -49 -7 12 -12 -95 -34 -184 -37 -47 -2 -131 -7 -187 -11 -67
-5 -103 -4 -103 2 0 6 -24 10 -55 9 -30 -1 -55 1 -55 4 0 3 -14 14 -30 24 -36
21 -96 30 -105 16 -10 -16 -92 -12 -109 6 -9 8 -16 20 -16 26 0 6 -9 8 -20 5
-13 -3 -21 1 -25 14 -9 26 -44 44 -58 30 -6 -6 -21 -11 -34 -11 -20 0 -22 -2
-11 -20 7 -10 10 -21 7 -24 -9 -10 -239 -14 -245 -4 -3 5 -28 7 -55 5 -54 -5
-148 16 -162 35 -6 9 -10 10 -13 2 -3 -8 -17 -6 -44 7 -31 15 -40 25 -40 44 0
17 -7 26 -23 30 -46 12 -79 123 -43 148 8 6 8 10 -2 14 -10 4 -10 8 -1 19 17
21 -6 43 -49 48 -31 3 -58 16 -34 16 7 0 6 9 -4 28 -7 15 -14 33 -14 40 0 6
-8 12 -19 12 -12 0 -23 12 -31 33 -6 17 -18 46 -26 62 -13 27 -13 35 1 70 20
47 14 90 -19 120 -18 16 -26 38 -32 81 -4 33 -13 68 -20 79 -7 11 -18 62 -24
112 -5 51 -15 104 -20 118 -6 15 -10 56 -10 92 0 36 -6 79 -14 96 -32 73 -37
98 -38 163 0 38 -4 74 -10 81 -5 6 -9 40 -9 75 0 35 -7 84 -15 109 -8 26 -14
51 -13 55 1 5 0 16 -3 24 -18 51 -27 112 -19 132 6 17 2 32 -16 59 -14 21 -26
58 -30 90 -3 30 -9 61 -14 69 -5 8 -9 -724 -9 -1627 l0 -1642 32 10 c18 5 44
9 58 9 20 -1 17 -4 -15 -15 -22 -8 -48 -15 -57 -15 -16 0 -18 -11 -18 -85 l0
-85 1395 0 c1236 0 1395 2 1395 15 0 8 7 15 15 15 8 0 15 -5 15 -11 0 -5 -4
-7 -10 -4 -5 3 -10 1 -10 -4 0 -8 83 -11 257 -11 141 0 254 2 251 5 -2 3 -17
6 -32 7 -23 2 -27 8 -33 41 -6 37 -7 39 -37 33 -17 -4 -33 -11 -34 -16 -2 -6
-13 -15 -25 -21 -12 -7 -19 -8 -15 -4 15 16 -23 37 -58 32 -22 -4 -32 -2 -28
4 3 6 -2 16 -12 23 -17 13 -16 14 5 21 18 6 21 9 10 16 -16 10 -47 2 -70 -18
-15 -12 -19 -12 -33 2 -15 15 -16 15 -17 -2 0 -10 -3 -13 -6 -5 -2 6 -9 10
-13 7 -5 -3 -24 1 -42 9 -18 8 -28 15 -21 15 7 1 10 8 7 16 -4 10 3 16 23 20
15 3 36 10 45 15 11 6 37 6 69 0 28 -5 55 -7 60 -5 5 3 22 -1 40 -10 29 -15
30 -17 12 -30 -16 -12 -10 -13 42 -9 34 3 82 -1 109 -8 49 -13 70 -32 44 -41
-7 -2 1 -2 17 1 52 7 49 19 -10 37 -61 20 -80 35 -43 35 14 0 33 7 44 15 10 8
27 15 36 15 23 0 14 23 -14 35 -12 6 -24 16 -26 24 -4 12 8 13 66 8 39 -4 77
-10 86 -13 28 -11 17 -24 -24 -30 -62 -10 -46 -34 33 -48 42 -8 45 -13 20 -33
-16 -12 -14 -13 17 -7 19 3 38 8 43 11 12 7 8 23 -5 23 -7 1 -31 9 -53 20 -29
14 -34 20 -20 21 27 2 34 3 73 13 20 5 38 4 45 -2 7 -6 30 -14 51 -18 36 -6
38 -8 21 -20 -10 -8 -34 -14 -52 -14 -18 0 -33 -4 -33 -8 0 -8 49 -32 109 -53
24 -8 29 -14 19 -20 -7 -5 16 -8 57 -7 63 2 84 9 85 30 0 4 -14 2 -31 -4 -34
-12 -85 -1 -149 32 l-34 18 44 8 c52 9 43 9 143 -7 54 -8 75 -15 67 -23 -16
-16 -12 -29 8 -21 28 12 100 9 116 -4 8 -7 27 -11 43 -9 l28 4 -27 12 c-36 15
-35 19 2 20 16 0 35 4 42 8 18 12 69 5 96 -12 12 -8 22 -10 22 -5 0 6 7 8 15
5 8 -4 13 -9 11 -13 -2 -3 47 -7 110 -8 63 -1 120 -6 127 -11 7 -6 47 -9 89
-9 42 1 72 5 66 8 -21 13 4 30 35 24 18 -3 69 -7 115 -8 59 -2 86 -8 94 -18 7
-11 11 -11 15 -1 3 7 24 12 53 12 27 0 51 4 54 9 7 11 71 20 159 22 37 1 75 8
85 15 10 8 46 13 94 14 68 0 77 2 83 20 5 15 15 20 40 20 23 0 39 7 49 21 l15
22 38 -22 c36 -20 37 -20 14 -1 -23 20 -23 21 -5 43 10 12 24 27 31 33 15 13
22 138 8 141 -5 2 -10 -4 -10 -11 0 -8 -3 -18 -7 -21 -4 -4 -4 -13 -1 -21 3
-9 -2 -14 -16 -14 -22 0 -21 8 6 60 7 14 13 31 13 38 0 6 7 12 15 12 8 0 15 4
15 10 0 5 -6 7 -14 4 -11 -4 -13 0 -9 16 6 21 7 20 34 -10 16 -17 29 -36 29
-42 0 -6 12 -2 27 8 33 21 143 34 329 38 72 2 140 9 151 15 12 6 63 15 114 21
52 6 108 14 124 19 17 5 62 12 100 16 139 12 460 104 518 148 18 13 46 29 64
36 43 17 63 51 67 112 2 28 9 55 15 58 19 12 36 116 25 148 -11 31 -41 41 -73
23 -19 -9 -21 -20 -21 -90 0 -119 -23 -155 -82 -126 -21 11 -36 12 -54 6 -14
-6 -27 -10 -30 -10 -8 0 -4 39 5 44 8 6 6 60 -5 114 -2 12 -11 22 -18 22 -21
0 -46 28 -46 52 0 11 -9 33 -20 48 -12 17 -20 44 -20 67 0 21 -2 65 -5 98 -4
33 -7 114 -8 181 -2 99 -5 123 -19 138 -20 20 -23 43 -7 48 11 4 20 127 12
165 -3 11 -14 24 -26 27 l-21 5 22 24 c30 32 28 50 -8 64 -21 8 -30 18 -30 33
0 18 4 21 23 16 12 -3 25 -6 30 -6 4 0 7 -8 7 -17 0 -15 2 -16 10 -3 17 26 11
37 -31 53 -39 16 -40 16 -33 54 4 21 8 46 9 57 1 10 9 24 18 31 14 10 15 14 3
31 -10 13 -11 23 -4 31 7 9 6 15 -6 19 -11 4 -16 18 -16 43 0 28 -7 43 -30 63
-17 14 -30 36 -30 48 0 12 -6 28 -14 36 -8 7 -12 22 -9 33 3 14 -3 21 -26 29
-37 13 -51 40 -28 54 17 9 22 43 11 72 -4 10 -18 16 -40 16 -23 0 -34 5 -34
15 0 8 -26 40 -58 72 -32 32 -61 66 -65 75 -10 27 30 48 88 48 65 0 210 -35
251 -61 59 -36 108 -108 113 -165 0 -8 15 -20 31 -25 36 -13 39 -40 8 -69
l-22 -20 25 0 c13 0 36 -6 50 -14 14 -7 63 -19 108 -26 l82 -13 -2 -136 c-2
-75 1 -150 5 -168 5 -21 2 -41 -8 -61 -11 -22 -16 -71 -18 -193 -3 -148 -1
-167 17 -197 10 -17 25 -32 32 -32 6 0 19 -10 27 -21 9 -13 21 -19 30 -16 25
10 24 63 -1 111 -10 19 -16 73 -19 170 -7 204 3 238 54 179 20 -23 22 -33 15
-68 -17 -87 4 -371 30 -403 6 -8 21 -12 36 -9 14 3 60 12 102 20 93 18 110 27
165 84 33 34 44 53 44 77 0 18 5 37 12 44 17 17 48 15 48 -3 0 -9 7 -18 15
-21 8 -4 15 -12 15 -19 0 -7 21 -20 47 -29 44 -15 100 -12 181 10 9 3 12 363
12 1759 l0 1755 -3057 -2 -3058 -3 0 -80 c0 -91 -18 -140 -68 -186 -48 -43
-79 -45 -182 -8 -49 17 -118 34 -152 36 -116 10 -102 53 20 60 101 6 118 16
116 67 -1 23 5 55 14 72 9 17 13 34 10 38 -11 11 -1571 7 -1578 -4z m3400 -30
c72 -11 162 -27 200 -36 72 -16 119 -24 265 -43 216 -28 768 -109 830 -121 30
-6 91 -13 135 -17 44 -3 84 -9 88 -13 5 -4 -29 -28 -75 -52 -227 -122 -286
-166 -382 -288 -107 -135 -104 -130 -177 -410 l-40 -155 -7 -250 c-3 -137 -5
-315 -3 -395 2 -100 -2 -173 -13 -235 -13 -75 -14 -102 -4 -161 17 -107 9
-121 -110 -179 -54 -26 -108 -47 -121 -47 -38 -1 -54 29 -46 87 3 28 8 82 12
121 l6 71 -44 45 c-32 33 -60 50 -101 63 -81 25 -132 15 -215 -42 l-66 -45
-60 26 c-33 14 -62 24 -65 21 -2 -2 11 -17 29 -32 80 -66 195 -178 202 -197 4
-11 15 -28 22 -37 16 -17 87 -186 111 -264 60 -195 84 -292 91 -365 4 -36 17
-89 30 -118 13 -29 23 -62 23 -72 0 -11 4 -28 10 -38 25 -46 80 -172 80 -185
0 -8 16 -38 35 -67 37 -55 45 -90 19 -90 -16 0 -39 45 -47 95 -3 17 -25 71
-50 120 -24 50 -48 101 -52 115 -4 14 -13 32 -20 40 -26 29 -105 239 -105 278
0 34 -87 268 -118 316 -18 28 -32 55 -32 62 0 6 -6 17 -13 23 -8 6 -19 30 -26
53 -28 97 -143 228 -199 228 -26 0 -147 56 -179 82 -18 14 -16 41 4 82 22 46
36 50 91 26 30 -14 48 -17 50 -10 2 6 17 8 37 4 l32 -6 -28 59 c-30 64 -53
162 -69 299 -5 49 -23 193 -40 319 -45 346 -48 369 -75 665 -30 320 -42 619
-25 650 10 20 41 38 65 39 6 0 69 -8 140 -19z m1987 -275 c295 -27 571 -73
656 -111 72 -32 192 -123 192 -145 0 -10 5 -21 11 -25 6 -4 7 -10 2 -15 -11
-11 -65 7 -139 44 -61 31 -130 49 -289 76 -471 80 -750 98 -775 51 -11 -21 2
-34 42 -44 37 -8 68 -44 68 -76 0 -14 15 -109 34 -210 33 -178 76 -431 76
-449 0 -5 -24 -44 -53 -87 -53 -79 -65 -104 -86 -180 -16 -62 -46 -82 -147
-104 -175 -37 -395 -121 -408 -156 -6 -16 -32 -19 -41 -4 -12 20 -17 406 -6
500 28 237 32 255 114 475 43 116 85 182 175 277 86 90 197 151 332 183 74 17
60 17 242 0z m174 -914 c87 -40 149 -121 91 -121 -12 0 -32 6 -43 14 -18 13
-54 22 -173 45 -19 3 -33 9 -32 14 0 4 1 13 1 21 0 15 62 45 95 45 11 0 38 -8
61 -18z m741 -564 c15 -8 37 -24 47 -36 11 -12 24 -21 31 -21 6 0 22 -11 35
-25 19 -20 22 -30 14 -43 -19 -31 -76 -54 -119 -48 -151 21 -169 28 -180 69
-4 12 -14 37 -23 55 -17 33 -17 34 8 54 22 18 34 20 92 15 36 -3 79 -12 95
-20z m1159 -149 c70 -62 83 -141 34 -203 -16 -21 -30 -42 -30 -47 0 -20 -67
-48 -117 -48 -64 0 -93 13 -115 50 -9 15 -29 36 -45 46 -37 23 -63 56 -55 69
4 5 7 21 7 35 0 20 14 32 78 68 68 38 125 56 189 61 10 0 34 -14 54 -31z
m-690 4 c40 -33 67 -83 68 -126 0 -31 -11 -60 -44 -118 -50 -89 -71 -99 -159
-78 -66 16 -88 42 -106 126 -19 89 -19 116 2 159 17 35 17 35 103 48 63 10
116 6 136 -11z m-427 -73 c66 -11 131 -41 131 -61 0 -5 -9 -22 -21 -36 -15
-20 -19 -34 -14 -63 5 -31 2 -44 -24 -79 -39 -54 -97 -100 -130 -102 -74 -4
-91 5 -124 66 -39 74 -39 75 -7 108 34 34 36 45 14 76 -23 33 -14 62 26 83 40
22 60 23 149 8z m1541 -304 c34 -18 39 -49 15 -94 -27 -53 -92 -57 -136 -10
-39 42 -38 74 4 99 38 24 78 25 117 5z m-433 -124 c22 -1 34 -7 38 -21 3 -10
28 -42 55 -69 37 -38 53 -65 66 -108 15 -53 15 -59 1 -83 -9 -14 -22 -36 -29
-50 -7 -14 -17 -28 -23 -32 -5 -4 10 -8 35 -8 91 0 123 -53 115 -187 -12 -196
-27 -320 -42 -356 -16 -36 -17 -37 -36 -20 -36 32 -46 77 -53 229 -6 121 -11
154 -27 182 -16 27 -18 43 -13 89 l6 55 -35 -6 c-20 -4 -86 -4 -147 0 -105 7
-113 9 -146 38 -43 37 -102 127 -102 155 0 45 66 130 102 131 9 0 26 12 38 28
26 32 49 40 115 37 28 -1 64 -3 82 -4z m-1947 -1595 c0 -12 5 -27 12 -34 9 -9
9 -12 0 -12 -8 0 -12 -26 -12 -86 0 -54 4 -83 10 -79 6 3 10 -1 10 -9 0 -9 -4
-16 -9 -16 -5 0 -9 -43 -10 -95 -1 -52 -4 -101 -7 -110 -3 -8 -1 -15 5 -15 6
0 11 -9 11 -20 0 -11 -3 -20 -7 -20 -5 0 -8 -19 -8 -42 0 -24 -3 -65 -6 -93
-4 -27 -4 -42 -2 -32 5 19 23 24 23 6 0 -6 -9 -22 -19 -35 l-20 -25 -15 28
c-14 26 -15 26 -16 6 0 -12 -4 -25 -10 -28 -6 -4 -7 1 -3 11 4 12 3 15 -6 10
-9 -6 -11 2 -6 32 5 34 2 43 -17 59 -16 12 -24 30 -26 58 -2 22 -10 58 -20 79
-12 28 -13 41 -5 43 8 3 9 14 3 34 -6 20 -5 29 3 29 9 0 8 3 -1 8 -9 6 -13 55
-16 174 -4 188 -12 172 84 192 66 14 80 11 80 -18z m-4037 -375 c49 -12 101
-27 115 -32 14 -6 58 -14 97 -19 39 -5 107 -21 150 -35 43 -14 86 -23 95 -20
9 3 49 -1 89 -10 42 -9 79 -12 89 -7 9 5 33 7 52 6 61 -3 349 35 552 73 74 14
142 10 154 -8 3 -5 1 -9 -5 -9 -6 0 -8 -12 -4 -32 l6 -31 -39 6 c-21 3 -53 8
-70 12 -28 6 -32 4 -36 -19 -3 -14 0 -30 5 -35 8 -8 3 -11 -17 -11 -20 0 -27
-4 -23 -14 8 -19 -13 -36 -44 -36 -54 0 -79 22 -37 33 18 5 19 8 8 21 -17 22
-37 20 -50 -3 -5 -11 -20 -21 -32 -23 -20 -3 -18 -6 16 -21 21 -9 50 -17 63
-17 14 0 37 -6 51 -14 34 -18 94 -37 99 -32 3 2 -5 7 -16 11 -23 7 -28 21 -9
27 20 7 100 -11 117 -26 9 -7 43 -16 77 -18 41 -3 70 -11 91 -26 25 -17 45
-22 97 -22 36 0 66 -4 66 -9 0 -5 -12 -18 -27 -29 l-28 -21 28 -10 c31 -12 47
-7 47 13 0 8 9 16 20 19 11 3 24 17 30 31 11 29 40 34 64 11 22 -23 58 -33 83
-24 11 4 34 6 50 4 15 -2 32 -4 37 -4 5 -1 2 -9 -7 -19 -24 -26 -22 -28 28
-41 33 -8 43 -15 39 -26 -6 -16 20 -21 50 -9 24 9 19 24 -8 24 -32 0 -42 36
-12 44 30 8 117 6 141 -3 19 -8 19 -8 0 -19 -16 -9 3 -10 80 -7 55 3 126 8
158 11 53 5 57 4 57 -15 0 -12 11 -25 27 -33 14 -7 27 -21 29 -30 2 -14 -10
-18 -64 -23 -37 -3 -92 -12 -122 -19 -30 -7 -72 -11 -93 -8 -68 8 -59 40 15
53 40 7 39 8 -15 5 -42 -2 -61 -8 -71 -21 -10 -14 -22 -17 -64 -13 -34 3 -58
1 -70 -8 -24 -17 -9 -28 51 -35 l52 -6 -48 -2 c-27 0 -58 4 -69 10 -12 6 -42
11 -67 11 -54 -2 -121 15 -121 28 0 13 -57 13 -65 0 -3 -6 4 -14 17 -19 l23
-9 -28 -13 c-34 -15 -30 -32 8 -39 29 -5 47 -29 23 -31 -48 -5 -70 -4 -74 3
-3 4 -16 8 -30 8 -13 0 -24 5 -24 10 0 6 11 10 24 10 14 0 28 5 32 11 9 15
-15 30 -42 27 -12 -2 -28 3 -37 10 -9 8 -26 12 -39 10 l-23 -5 25 -10 c18 -8
21 -12 10 -16 -44 -15 -77 -14 -110 3 -19 11 -32 20 -27 21 4 1 12 3 17 4 6 1
13 3 17 4 4 0 2 6 -3 11 -11 11 -65 14 -99 6 -11 -2 -23 -5 -27 -5 -22 -2 -2
-19 43 -39 47 -19 50 -23 38 -38 -13 -16 -9 -17 57 -12 56 4 78 1 105 -13 19
-10 30 -18 25 -19 -6 0 -5 -5 2 -12 7 -7 12 -16 12 -20 0 -12 -38 -10 -45 2
-3 6 -21 10 -39 10 -37 0 -158 38 -167 53 -9 13 -42 0 -34 -13 3 -5 16 -10 29
-10 38 0 76 -23 70 -43 -4 -11 0 -17 11 -17 10 0 13 5 9 12 -5 8 -2 9 10 5 10
-4 50 -14 88 -22 39 -8 73 -17 76 -20 12 -12 -17 -26 -59 -28 -24 -1 -50 -6
-56 -10 -7 -5 -19 -5 -25 0 -7 4 -33 15 -58 24 -25 9 -44 22 -42 29 2 9 -8 11
-35 8 -23 -3 -67 4 -113 18 -41 13 -83 24 -93 24 -31 0 -8 -19 31 -26 20 -4
48 -12 62 -19 l25 -13 -40 -11 c-22 -5 -53 -12 -69 -15 -16 -3 -34 -10 -40
-16 -5 -5 -18 -10 -28 -10 -24 0 -100 39 -114 58 -9 12 -19 13 -50 6 -30 -8
-49 -6 -80 5 -54 21 -56 33 -8 48 l39 12 -40 -4 c-22 -3 -59 -7 -83 -11 -31
-5 -54 -2 -82 11 -48 22 -51 41 -7 54 29 10 28 10 -13 5 -25 -3 -56 -10 -68
-17 -20 -9 -31 -7 -70 13 -30 16 -47 31 -46 42 1 15 -5 16 -40 12 -28 -3 -52
0 -75 13 -44 23 -50 40 -18 52 27 11 45 31 27 31 -7 0 -40 -8 -75 -17 l-63
-17 -41 27 c-23 15 -41 34 -41 42 0 10 -11 15 -35 15 -39 0 -113 33 -121 54
-3 8 -25 17 -49 20 -30 5 -53 17 -77 40 -19 19 -49 37 -68 41 -19 4 -51 26
-77 51 -24 24 -51 44 -61 44 -9 0 -30 7 -46 15 -38 20 -53 19 -33 -2 14 -17
14 -22 -5 -65 -11 -27 -25 -48 -31 -48 -6 0 -35 23 -64 52 -60 59 -67 88 -26
115 14 10 39 31 54 46 16 16 40 32 53 35 43 12 217 -3 309 -27z m-275 -391
c43 -19 48 -31 36 -78 -5 -18 -12 -22 -40 -19 -19 2 -42 11 -52 20 -10 9 -26
17 -36 17 -26 0 -56 19 -56 35 0 7 12 23 27 35 30 23 48 22 121 -10z"/>
<path d="M1897 592 c-9 -10 -17 -21 -17 -25 0 -3 28 -5 63 -4 77 1 107 -8 107
-34 0 -14 7 -19 29 -19 37 0 87 -18 130 -47 19 -13 46 -26 60 -29 14 -3 40
-12 58 -20 50 -23 60 -16 23 15 -19 17 -42 28 -50 26 -25 -8 -117 41 -125 65
-5 16 -13 20 -27 17 -32 -9 -116 21 -123 43 -5 15 -15 20 -45 20 -21 0 -45 2
-52 5 -8 3 -22 -3 -31 -13z"/>
<path d="M2490 495 c0 -8 18 -25 40 -37 40 -23 50 -41 29 -54 -23 -14 18 -24
51 -12 27 9 43 8 87 -7 29 -10 53 -24 53 -32 0 -16 12 -17 27 -2 8 8 24 6 57
-5 26 -9 55 -16 66 -16 10 0 23 -7 28 -16 6 -11 16 -13 35 -9 38 10 25 22 -38
36 -56 12 -69 32 -24 37 33 4 79 23 79 32 0 15 -176 74 -204 68 -35 -7 -15
-23 36 -29 67 -8 111 -22 116 -37 5 -16 -102 -45 -138 -37 -52 11 -92 36 -87
54 3 13 -6 16 -57 16 -64 1 -116 23 -116 51 0 8 -9 14 -20 14 -11 0 -20 -7
-20 -15z"/>
<path d="M7300 1522 c-22 -42 -28 -100 -15 -122 4 -6 44 -10 90 -10 55 0 99
-6 125 -16 28 -11 57 -15 93 -11 29 3 68 1 87 -4 27 -8 53 -6 110 9 58 14 81
16 103 8 38 -15 101 20 105 57 4 30 0 31 -178 47 -169 16 -375 49 -419 68 -65
28 -76 25 -101 -26z"/>
<path d="M7675 644 c-58 -21 -103 -43 -110 -54 -3 -6 -23 -10 -44 -10 -22 0
-44 -6 -51 -15 -7 -8 -28 -17 -49 -21 -20 -3 -45 -12 -56 -19 -11 -7 -54 -22
-95 -34 -41 -13 -89 -29 -107 -36 -17 -8 -60 -19 -95 -26 -34 -7 -70 -18 -78
-25 -8 -7 -46 -23 -85 -35 -38 -12 -77 -28 -85 -35 -8 -6 -35 -15 -60 -19 -25
-4 -74 -20 -110 -35 -126 -54 -246 -100 -261 -100 -9 0 -22 -7 -29 -15 -7 -8
-27 -15 -44 -15 -18 0 -37 -5 -42 -10 -6 -6 -37 -17 -69 -25 -32 -9 -87 -29
-122 -46 -35 -17 -74 -29 -86 -27 -12 2 -29 -4 -37 -13 -9 -10 -27 -19 -40
-22 -14 -3 18 -4 70 -3 52 1 104 6 114 11 14 6 17 5 12 -3 -5 -9 25 -12 119
-12 82 0 124 4 120 10 -3 6 4 10 17 10 19 0 20 -2 8 -10 -10 -6 49 -9 175 -9
121 1 195 5 203 12 10 8 16 7 23 -4 7 -11 9 -11 9 0 0 8 7 11 20 8 11 -3 18
-1 14 4 -5 8 -1 10 36 13 8 1 31 9 50 17 19 9 58 23 85 32 169 55 180 58 183
47 3 -8 9 -6 21 4 9 8 34 19 56 25 22 5 90 30 150 55 61 25 116 46 123 46 8 0
41 16 73 35 33 19 64 35 68 35 5 0 42 13 82 30 41 16 81 30 89 30 8 0 47 16
87 36 64 33 73 40 73 65 0 27 0 28 -54 22 -67 -7 -82 9 -41 44 37 32 22 47
-49 44 -30 -1 -57 3 -61 9 -3 5 -15 10 -26 10 -10 0 -19 5 -19 10 0 6 6 10 14
10 8 0 18 5 21 10 9 15 -62 10 -110 -6z"/>
</g>
</svg>
