<?xml version="1.0" standalone="no"?>
<!DOCTYPE svg PUBLIC "-//W3C//DTD SVG 20010904//EN"
 "http://www.w3.org/TR/2001/REC-SVG-20010904/DTD/svg10.dtd">
<svg version="1.0" xmlns="http://www.w3.org/2000/svg"
 width="800.000000pt" height="551.000000pt" viewBox="0 0 800.000000 551.000000"
 preserveAspectRatio="xMidYMid meet">
<metadata>
Created by potrace 1.15, written by Peter Selinger 2001-2017
</metadata>
<g transform="translate(0.000000,551.000000) scale(0.100000,-0.100000)"
fill="#000000" stroke="none">
<path d="M0 2755 l0 -2755 520 0 520 0 1 298 c1 163 3 371 4 462 1 91 5 700 9
1355 3 655 8 1312 11 1460 4 224 8 995 6 1154 -1 36 -4 42 -17 37 -14 -6 -16
-1 -10 36 16 99 93 171 211 196 99 21 798 29 3395 36 811 3 1483 8 1493 11 10
4 17 3 17 -4 0 -6 -18 -14 -40 -17 -23 -4 -46 -14 -53 -24 -7 -9 -21 -22 -32
-28 -18 -10 -16 -11 17 -12 20 0 39 4 42 9 8 12 102 26 210 30 24 1 27 4 22
24 -5 23 -5 23 77 20 45 -1 152 -5 237 -7 114 -3 168 -9 205 -22 119 -41 195
-120 223 -229 18 -66 21 -223 27 -1255 3 -542 7 -1086 10 -1210 3 -124 8 -531
11 -905 4 -374 8 -702 9 -730 1 -27 3 -193 4 -367 l1 -318 435 0 435 0 0 2755
0 2755 -4000 0 -4000 0 0 -2755z"/>
<path d="M3110 4928 c0 -4 -11 -10 -25 -14 -52 -13 -21 -24 73 -26 113 -3 139
-2 207 2 28 1 103 2 168 1 115 -2 164 7 137 24 -17 10 -560 22 -560 13z"/>
<path d="M6194 4806 c-40 -18 -80 -71 -89 -118 -4 -21 -4 -38 -1 -38 9 0 29
52 27 71 -1 8 13 22 34 32 43 21 59 22 52 3 -3 -8 3 -23 14 -34 12 -14 15 -23
8 -28 -6 -3 -8 -17 -5 -30 4 -13 1 -32 -5 -43 -7 -10 -9 -27 -5 -37 7 -18 9
-17 17 4 12 31 26 21 27 -20 0 -18 6 -34 11 -36 20 -7 11 -22 -11 -22 -13 0
-18 -4 -12 -9 17 -16 81 1 118 30 63 53 72 148 20 216 -52 69 -127 91 -200 59z"/>
<path d="M6033 4778 c-39 -49 -65 -160 -52 -216 6 -20 12 -48 15 -62 3 -14 17
-38 32 -53 21 -22 24 -30 13 -36 -25 -16 -1 -33 38 -27 51 8 51 8 101 -4 39
-10 64 -9 140 4 30 5 150 93 150 109 0 4 -10 -2 -22 -13 -37 -35 -88 -62 -114
-62 -13 0 -27 -4 -30 -9 -8 -13 -67 1 -82 20 -11 14 -14 14 -23 1 -9 -12 -10
-12 -5 3 4 12 -2 25 -16 37 -31 25 -17 35 27 20 53 -18 52 -7 -2 23 -47 25
-83 69 -83 100 0 9 -5 19 -12 23 -7 5 -9 1 -6 -13 3 -12 0 -20 -8 -20 -7 0
-11 4 -8 9 3 4 -1 8 -9 8 -40 0 -57 60 -37 129 11 38 8 48 -7 29z"/>
<path d="M3680 4713 c-139 -8 -425 -53 -408 -65 8 -5 -3 -6 -27 -3 -31 5 -36
4 -25 -5 12 -8 10 -9 -10 -5 -48 11 -390 -90 -660 -194 -107 -42 -274 -121
-278 -133 -2 -4 -9 -8 -15 -8 -7 0 -29 -9 -50 -20 -20 -11 -37 -17 -37 -14 0
3 -12 -3 -27 -14 -16 -10 -66 -38 -113 -62 -176 -88 -389 -226 -447 -288 -20
-21 -37 -31 -45 -26 -7 4 -10 4 -6 0 4 -5 -27 -35 -67 -68 -84 -67 -138 -126
-166 -181 -27 -52 -46 -181 -55 -362 -4 -82 -11 -161 -16 -174 -4 -13 -11
-355 -15 -760 -8 -861 -7 -996 1 -1114 3 -48 2 -107 -3 -130 -10 -45 4 -132
30 -179 43 -79 55 -98 91 -146 51 -68 110 -107 137 -90 15 9 23 9 34 -1 10 -8
17 -9 22 -1 12 20 25 10 25 -20 0 -23 4 -30 20 -30 15 0 20 7 20 29 0 30 20
40 66 33 17 -2 20 -8 16 -28 -2 -14 -14 -29 -25 -33 -29 -11 -8 -20 31 -14 38
6 66 43 32 43 -11 0 -20 7 -20 15 0 12 15 15 76 15 73 0 75 -1 69 -22 l-7 -23
17 23 c17 23 54 29 72 11 8 -8 13 -8 17 0 10 16 41 14 56 -4 11 -13 14 -13 27
1 22 21 45 14 56 -19 17 -51 8 -55 -113 -56 -101 -1 -111 1 -106 16 6 15 5 15
-13 -1 -18 -16 -35 -18 -158 -13 -92 3 -128 2 -108 -4 17 -5 215 -10 442 -10
370 0 413 -1 425 -16 11 -14 11 -16 -1 -8 -10 5 -12 4 -7 -3 9 -14 30 -15 54
-3 9 5 30 15 46 22 28 13 24 14 -65 20 -80 4 -68 6 81 8 285 4 330 11 464 66
15 7 17 5 11 -6 -5 -8 -5 -11 1 -6 5 5 9 14 9 20 0 7 8 11 17 9 16 -2 102 88
98 104 -1 4 3 10 9 13 5 4 23 36 40 71 100 213 185 329 308 421 40 30 73 61
74 69 0 9 2 11 5 3 6 -14 49 2 76 29 10 10 24 18 31 18 8 0 7 -4 -3 -10 -8 -5
-10 -10 -5 -10 14 0 43 20 30 20 -5 0 9 10 33 21 32 15 47 17 61 9 15 -7 23
-6 35 6 9 8 20 13 26 9 5 -3 19 -1 30 5 24 13 260 19 260 7 0 -4 6 -7 13 -6
24 5 187 -50 264 -89 30 -15 34 -15 50 0 61 57 83 82 133 150 19 26 56 71 81
99 l45 51 -17 37 c-10 20 -21 71 -24 113 -6 77 -6 77 19 84 15 3 41 4 59 1 26
-4 36 0 53 20 l20 26 -40 62 c-23 34 -52 85 -66 113 -14 28 -31 51 -37 52 -14
0 -19 20 -5 20 4 0 6 28 6 62 -2 110 56 183 152 194 102 11 164 -61 174 -198
l5 -78 75 93 c41 50 170 207 287 348 l213 256 113 56 c159 79 209 99 220 88 6
-6 -4 -76 -26 -186 -37 -184 -39 -189 -124 -304 -18 -24 -30 -47 -27 -52 3 -5
-1 -9 -8 -9 -7 0 -24 -17 -38 -38 -13 -20 -74 -104 -135 -187 -212 -287 -285
-389 -285 -400 0 -2 -11 -16 -25 -31 -13 -14 -22 -31 -18 -37 3 -5 2 -8 -3 -4
-5 3 -38 -33 -73 -79 -35 -46 -65 -84 -66 -84 -2 0 -16 7 -31 15 -16 8 -34 15
-41 15 -12 0 -94 -107 -224 -290 -101 -143 -109 -156 -109 -181 0 -19 -2 -20
-17 -8 -17 13 -17 12 -2 -11 9 -14 22 -35 30 -47 8 -13 19 -23 26 -23 12 0 31
-26 31 -43 1 -29 17 -74 31 -85 9 -7 10 -11 4 -7 -17 8 -16 -6 0 -39 14 -26
27 -25 27 1 0 8 -5 11 -12 7 -8 -5 -9 -2 -5 10 4 10 7 22 7 27 0 5 5 9 11 9 5
0 8 -4 4 -9 -3 -5 -1 -13 5 -16 6 -4 8 -14 5 -24 -3 -9 2 -26 11 -37 8 -10 12
-12 8 -4 -4 8 5 4 19 -10 14 -14 28 -36 32 -50 7 -22 6 -23 -9 -11 -9 8 -20
11 -23 7 -4 -4 -3 -10 2 -14 6 -4 27 -28 48 -54 37 -46 82 -80 125 -93 32 -9
27 11 -5 23 -24 9 -25 11 -7 11 24 1 49 -23 49 -47 0 -15 10 -19 73 -29 17 -3
32 -10 32 -15 0 -6 5 -6 14 1 17 14 127 6 137 -10 4 -8 16 -6 39 6 30 15 32
15 27 1 -5 -13 2 -16 44 -16 31 0 48 4 44 10 -4 6 9 10 32 9 34 -1 35 -2 13
-9 -17 -6 -4 -8 45 -8 64 1 66 2 25 8 -29 4 -36 8 -20 9 47 5 253 2 258 -4 3
-3 -11 -5 -32 -5 -20 0 -35 -4 -31 -9 3 -5 48 -10 100 -10 77 -1 95 2 95 14 0
8 7 15 15 15 19 1 151 1 306 0 68 0 118 -4 115 -9 -3 -5 -80 -8 -171 -7 -91 0
-165 -2 -165 -6 0 -8 98 -12 266 -11 99 1 194 26 242 64 27 21 22 25 -11 8
-27 -15 -25 -12 46 45 52 42 75 51 45 16 -11 -12 -10 -12 5 0 10 7 16 18 13
25 -2 6 8 25 23 41 30 32 71 130 71 169 0 14 4 25 8 25 5 0 7 15 6 32 -1 18 3
37 9 41 9 6 9 10 0 14 -9 3 -13 32 -13 94 0 58 4 88 10 84 6 -3 10 -1 10 4 0
6 -4 11 -10 11 -6 0 -10 46 -10 119 0 69 4 122 10 126 13 8 13 65 -1 65 -7 0
-9 29 -5 88 8 153 5 396 -6 409 -7 9 -7 13 2 13 8 0 10 7 5 18 -8 19 -9 240
-2 285 2 15 0 27 -5 27 -8 0 -5 362 3 450 1 8 -1 157 -5 330 -7 323 -14 383
-55 474 -29 65 -109 157 -174 201 -92 61 -178 121 -222 154 -175 132 -558 338
-822 442 -99 39 -113 47 -118 72 -7 30 -22 36 -31 12 -8 -20 -30 -19 -100 5
-223 78 -588 151 -913 185 -129 14 -523 18 -701 8z m-20 -113 c0 -5 -4 -10
-10 -10 -6 0 -10 -27 -10 -60 0 -33 4 -60 10 -60 5 0 7 -6 4 -14 -3 -8 -1 -17
4 -20 13 -8 20 34 18 106 -1 62 6 67 37 27 31 -42 33 -98 5 -139 -21 -31 -29
-35 -71 -36 -26 -1 -45 1 -43 5 3 4 1 13 -5 21 -7 12 -9 12 -9 -4 0 -15 -3
-16 -15 -6 -13 10 -15 9 -15 -9 0 -11 5 -21 11 -21 5 0 7 -5 4 -11 -4 -6 -13
-8 -21 -5 -8 3 -14 1 -14 -4 0 -6 -4 -10 -10 -10 -5 0 -7 7 -4 15 5 11 2 13
-10 9 -10 -4 -15 -12 -12 -19 5 -15 -24 -45 -44 -45 -10 0 -10 -3 0 -15 7 -8
11 -15 9 -16 -2 0 -14 -2 -27 -5 -30 -5 -55 -30 -46 -45 4 -8 3 -9 -4 -5 -7 4
-12 2 -12 -5 0 -7 -9 -2 -20 11 -11 13 -20 19 -20 14 0 -6 5 -15 12 -22 7 -7
8 -12 4 -12 -4 0 -16 10 -26 23 -14 17 -21 19 -31 10 -6 -6 -12 -20 -14 -30
-3 -38 -24 -73 -40 -67 -8 3 -15 2 -15 -3 0 -5 -10 -9 -21 -9 -12 1 -24 -4
-26 -11 -3 -7 4 -10 19 -7 14 2 7 -4 -16 -15 -24 -12 -34 -21 -26 -26 9 -5 9
-10 0 -19 -8 -8 -13 -7 -20 4 -8 12 -10 10 -10 -7 0 -13 -4 -23 -10 -23 -5 0
-10 7 -10 15 0 8 -4 15 -10 15 -13 0 -13 -6 1 -33 16 -29 30 -38 51 -31 12 3
17 -1 16 -13 -1 -10 18 -93 40 -185 23 -91 42 -169 42 -172 0 -3 -6 -6 -14 -6
-9 0 -21 28 -35 78 -22 83 -59 226 -66 255 -6 28 -15 36 -31 30 -10 -4 -12 -9
-4 -18 13 -16 3 -45 -16 -45 -8 0 -14 -5 -14 -11 0 -5 4 -8 9 -5 4 3 6 -7 3
-22 l-5 -27 -14 33 c-19 46 -25 40 -8 -9 8 -23 15 -50 15 -61 0 -10 4 -16 10
-13 5 3 7 0 4 -8 -2 -7 7 -53 21 -101 29 -102 29 -106 12 -106 -8 0 -28 47
-52 123 -39 124 -54 148 -87 139 -10 -2 -18 1 -18 7 0 8 -6 7 -20 -1 -20 -13
-20 -13 2 -19 17 -4 23 -12 21 -30 -1 -14 0 -17 3 -6 6 19 19 22 29 7 4 -6 11
-8 16 -5 5 4 9 2 9 -4 0 -16 -22 -25 -30 -11 -6 9 -9 9 -15 0 -4 -6 -13 -9
-21 -6 -15 6 -17 2 -8 -31 4 -13 10 -20 15 -17 5 3 6 -1 3 -9 -5 -14 31 -124
46 -141 5 -5 6 -15 3 -22 -6 -16 -49 -19 -58 -4 -3 6 1 7 10 4 14 -6 13 0 -3
42 -11 27 -25 66 -31 87 -7 20 -18 37 -26 37 -16 0 -28 27 -15 35 6 4 10 1 10
-6 0 -7 2 -10 5 -7 3 2 -4 29 -15 59 -10 30 -19 48 -20 41 0 -18 -20 -4 -20
14 0 9 5 12 12 8 7 -5 9 -2 5 9 -11 28 22 28 38 -1 13 -22 15 -23 10 -4 -4 13
-2 22 4 22 6 0 11 -8 11 -17 0 -15 2 -16 10 -3 10 16 -13 36 -30 25 -6 -3 -10
1 -10 9 0 8 8 20 18 25 14 9 13 10 -11 11 -27 0 -27 1 -12 24 11 17 13 26 5
31 -7 4 -8 11 -1 18 12 15 -19 55 -37 49 -18 -6 -15 28 4 35 8 3 13 12 10 19
-3 8 1 14 9 14 10 0 15 10 14 28 l-1 27 -7 -25 -7 -25 -6 24 c-4 12 -11 20
-17 17 -17 -11 -23 13 -7 29 11 11 16 12 19 2 3 -6 4 2 3 18 -1 24 -6 30 -25
29 -22 -1 -22 -1 4 24 25 23 27 23 46 6 17 -16 19 -16 19 -1 0 10 5 17 11 17
8 0 9 4 0 13 -6 8 -8 17 -4 20 3 4 12 -1 20 -11 8 -9 11 -11 8 -4 -8 16 24 42
42 35 7 -3 13 0 13 7 0 7 7 10 15 6 8 -3 15 -1 15 4 0 6 3 9 8 8 15 -3 62 15
62 24 0 5 4 7 9 4 5 -4 22 -1 38 5 15 6 30 10 32 9 2 -1 8 4 12 12 7 10 9 10
9 0 0 -10 4 -10 23 0 12 7 27 11 34 10 6 -1 14 2 18 8 3 5 11 10 16 10 6 0 7
-5 3 -11 -4 -7 0 -9 12 -5 11 3 44 8 74 10 44 4 60 10 78 31 12 14 22 35 22
46 0 26 -30 37 -45 16 -13 -17 -35 -23 -35 -9 0 4 7 18 16 30 21 30 98 32 114
3 14 -28 12 -57 -5 -71 -8 -7 -15 -22 -14 -34 0 -11 3 -15 6 -8 2 6 13 12 23
12 10 0 21 -6 23 -12 5 -12 11 45 8 66 -3 14 49 76 65 76 7 0 14 -4 14 -10z
m1274 -209 c0 -13 7 -32 18 -43 22 -22 23 -40 4 -76 -30 -58 -99 -66 -132 -16
-11 16 -12 23 -1 38 16 21 43 13 51 -16 4 -18 7 -19 20 -8 27 22 20 60 -14 71
-34 12 -40 29 -10 29 13 0 22 9 26 26 8 32 39 28 38 -5z m-1274 -35 c0 -8 6
-19 14 -25 9 -7 16 -44 21 -99 3 -48 15 -172 26 -277 25 -244 25 -235 -6 -235
-14 0 -27 6 -30 13 -2 6 -17 143 -33 302 -24 244 -27 291 -15 298 9 5 11 16 7
29 -4 14 -2 18 5 14 6 -4 11 -13 11 -20z m1430 -166 c14 -9 1 -56 -142 -528
-18 -59 -21 -63 -46 -60 -17 2 -26 9 -25 18 2 18 76 268 132 448 24 74 47 132
54 132 7 0 19 -4 27 -10z m-2802 -50 c55 -81 -7 -217 -82 -182 -68 31 -80 140
-22 198 41 41 68 36 104 -16z m136 38 c42 -19 65 -68 56 -118 -17 -92 -76
-126 -123 -70 -47 55 -48 130 -2 176 27 27 34 29 69 12z m2 -551 c74 -137 133
-255 130 -263 -3 -8 -14 -14 -25 -14 -20 0 -39 31 -224 370 l-85 155 21 18
c27 24 16 41 183 -266z m3494 -82 c0 -3 -23 -40 -51 -82 -28 -41 -53 -83 -54
-92 -2 -9 -4 -18 -5 -21 -1 -3 -2 -9 -1 -13 1 -5 -4 -5 -10 -1 -16 9 -30 -17
-22 -41 8 -28 23 -35 46 -23 10 5 21 7 24 4 6 -6 96 110 134 172 21 33 49 43
49 18 0 -7 -7 -19 -15 -26 -8 -6 -17 -20 -20 -30 -3 -10 -21 -35 -40 -56 -24
-26 -33 -45 -30 -58 3 -12 2 -15 -1 -8 -5 11 -65 -57 -93 -107 -5 -8 -16 -11
-25 -8 -15 6 -14 11 9 47 24 38 24 40 6 30 -15 -8 -21 -8 -21 0 0 6 -5 8 -11
5 -6 -4 -17 1 -25 11 -13 16 -15 17 -10 2 3 -11 1 -15 -8 -12 -7 3 -16 -2 -19
-10 -9 -22 -24 -20 -38 5 -6 12 -7 19 -1 15 5 -3 53 59 106 139 53 80 103 145
111 145 8 0 15 -2 15 -5z m306 -181 c-2 -6 5 -16 16 -23 18 -11 20 -11 15 2
-3 9 -1 18 6 20 19 6 37 -48 27 -83 -5 -17 -6 -39 -2 -48 5 -14 7 -13 12 6 4
20 7 21 24 9 16 -12 17 -17 6 -38 -7 -13 -24 -32 -37 -43 -13 -10 -22 -25 -19
-32 5 -12 -5 -18 -25 -16 -4 1 -41 -37 -84 -83 -66 -74 -96 -94 -95 -67 0 4
29 39 65 77 35 39 63 75 60 81 -2 6 4 11 13 10 10 -1 16 6 16 16 -1 10 2 16 6
13 4 -3 13 2 20 10 10 12 9 16 -6 21 -11 4 -27 14 -37 23 -18 15 -20 14 -39
-9 -11 -14 -51 -62 -89 -108 -61 -71 -73 -81 -90 -72 -26 15 -24 24 16 77 20
26 33 53 31 60 -3 7 4 15 17 19 12 3 41 29 65 57 37 44 43 57 40 89 -4 39 3
45 50 44 12 -1 20 -6 18 -12z m-2117 -229 c16 -8 34 -27 41 -44 41 -100 -85
-178 -162 -101 -27 28 -30 36 -25 73 10 74 78 108 146 72z m-622 -44 l23 -26
0 28 c0 18 5 27 16 27 13 0 15 -9 11 -55 -2 -31 -7 -59 -11 -62 -6 -6 -45 36
-46 50 0 4 -4 7 -10 7 -5 0 -7 -13 -3 -31 5 -27 3 -31 -13 -27 -15 3 -18 11
-15 53 2 49 -12 56 -21 10 -2 -11 -10 -19 -16 -17 -7 1 -12 -5 -12 -14 0 -14
3 -14 15 -4 19 15 28 9 19 -14 -4 -10 -18 -16 -40 -16 l-34 0 0 60 0 60 58 -1
c48 -2 61 -6 79 -28z m224 18 c15 -8 19 -19 17 -46 -4 -52 17 -52 37 2 16 40
45 63 45 35 0 -6 9 -30 20 -52 25 -51 25 -48 -5 -48 -16 0 -25 6 -25 15 0 8
-7 15 -15 15 -9 0 -12 -6 -9 -15 5 -12 -2 -15 -33 -15 -31 0 -42 5 -52 23
l-11 22 6 -22 c4 -19 1 -23 -18 -23 -22 0 -23 3 -21 58 1 31 2 58 3 60 1 6 44
1 61 -9z m1020 -15 c9 -12 10 -20 2 -33 -12 -19 0 -51 19 -51 7 0 9 18 6 50
-5 46 -3 50 16 50 19 0 21 -5 19 -57 l-1 -58 -40 -2 c-32 -1 -42 3 -51 20 -10
21 -11 21 -8 2 1 -14 -5 -21 -20 -23 -21 -3 -22 -1 -16 46 5 49 5 50 -22 50
-27 0 -27 -2 -23 -50 5 -45 4 -49 -16 -46 -19 3 -21 8 -18 51 4 47 3 48 -18
37 -16 -9 -25 -9 -36 0 -32 27 -59 -20 -34 -60 8 -12 13 -13 29 -3 23 14 35 5
20 -14 -25 -29 -83 -5 -89 37 -9 59 11 68 149 69 95 0 122 -3 132 -15z m-3274
-271 c32 -26 63 -52 69 -58 6 -5 39 -32 73 -60 33 -27 61 -53 61 -56 0 -3 -9
-14 -20 -24 -18 -17 -23 -14 -142 85 -164 137 -154 126 -138 144 19 24 34 20
97 -31z m5239 15 c4 -7 -14 -31 -47 -61 -97 -88 -202 -177 -209 -177 -3 0 -15
7 -26 15 -18 15 -18 16 21 51 51 46 236 184 246 184 4 0 11 -5 15 -12z m-628
-373 c2 -42 8 -64 20 -73 16 -12 16 -14 0 -26 -19 -14 -25 -42 -7 -30 7 4 9
-2 7 -17 -2 -20 -10 -25 -42 -27 -45 -4 -70 13 -45 31 24 18 11 37 -26 37 -19
0 -37 5 -40 11 -7 10 46 106 78 140 34 36 52 21 55 -46z m192 54 c0 -29 -22
-49 -55 -49 -19 0 -35 -4 -35 -10 0 -5 7 -10 15 -10 9 0 30 -7 46 -16 28 -14
30 -19 27 -61 -2 -37 -9 -50 -30 -66 -23 -17 -34 -19 -65 -11 -31 7 -38 13
-38 34 0 18 6 26 23 28 13 2 24 -3 28 -12 8 -22 24 -10 24 19 0 19 -6 24 -32
27 -33 3 -33 3 -36 65 l-3 62 58 4 c32 2 61 4 66 5 4 1 7 -3 7 -9z m165 -25
c48 -52 42 -152 -12 -194 -31 -24 -66 -20 -98 10 -29 30 -33 134 -6 178 27 42
80 45 116 6z m-4700 -20 c46 -18 64 -135 29 -195 -17 -29 -26 -34 -63 -37 -51
-4 -67 8 -82 58 -32 106 34 205 116 174z m1459 -16 c12 -21 66 -333 82 -481 4
-32 8 -56 10 -54 2 2 22 119 44 261 22 142 42 262 45 267 4 5 31 9 61 9 52 0
54 -1 54 -28 0 -27 -126 -761 -136 -794 -4 -15 -17 -18 -69 -18 -52 0 -65 3
-69 18 -3 9 -19 96 -36 192 -17 96 -46 263 -65 370 -19 107 -36 211 -37 230
-3 34 -2 35 42 41 25 3 48 7 52 7 4 1 14 -8 22 -20z m614 -8 c20 -13 42 -39
55 -68 21 -44 22 -64 25 -315 4 -303 -3 -359 -49 -412 -56 -64 -161 -65 -225
-1 -47 47 -54 100 -54 389 0 260 7 321 40 367 42 59 145 78 208 40z m300 -352
c2 -332 4 -358 20 -360 9 0 22 -2 27 -3 6 -2 34 -3 63 -4 l52 -1 0 -60 0 -61
-142 3 -143 3 2 260 c2 194 -1 261 -10 267 -9 6 -9 10 1 16 9 6 12 44 11 144
-1 75 2 141 6 148 4 6 27 10 58 8 l52 -3 3 -357z m553 346 c5 -3 9 -14 9 -24
0 -13 9 -22 25 -26 30 -7 32 -20 5 -34 -15 -8 -20 -8 -21 2 0 7 -5 3 -12 -10
-10 -22 -16 -23 -71 -20 l-61 3 -3 -119 c-2 -89 1 -122 10 -128 10 -6 10 -10
1 -16 -9 -6 -13 -68 -15 -232 l-3 -225 -60 0 -60 0 4 363 3 362 -66 0 -66 0 0
53 c0 30 3 57 8 61 8 9 359 -1 373 -10z m-2591 -1219 c10 -12 16 -13 26 -4 20
17 176 18 181 2 3 -8 -6 -13 -24 -14 -17 -1 -21 -3 -10 -6 20 -5 23 -23 5 -24
-7 0 -3 -4 10 -10 32 -12 18 -29 -24 -29 -30 0 -34 3 -34 25 0 23 -2 24 -22
13 -13 -7 -27 -19 -31 -25 -15 -24 -27 -13 -28 25 l-1 37 -15 -37 c-17 -40
-33 -50 -33 -20 -1 20 -27 58 -35 50 -3 -3 -7 -15 -10 -27 -9 -49 -35 -51 -35
-1 0 16 -7 30 -16 34 -28 11 -4 26 40 26 27 0 48 -6 56 -15z m328 -7 c9 -9 12
-9 12 0 0 7 14 12 34 12 24 0 38 -7 49 -22 l15 -23 22 23 c13 13 31 22 43 20
17 -2 21 -10 22 -43 0 -35 -3 -40 -24 -43 -13 -2 -28 1 -34 7 -14 14 -54 14
-62 1 -11 -17 -65 -12 -65 7 0 15 -1 15 -18 0 -10 -10 -31 -17 -45 -17 -25 0
-27 3 -27 45 0 44 1 45 33 45 18 0 38 -5 45 -12z m2800 -173 l3 -45 -134 0
c-114 0 -136 2 -141 16 -11 29 -6 63 11 72 9 5 71 8 137 6 l121 -4 3 -45z
m784 13 c14 -17 18 -18 14 -6 -6 21 13 36 24 18 5 -8 13 -9 21 -4 16 11 82 14
122 7 29 -5 38 -23 11 -23 -13 0 -15 -8 -12 -35 3 -28 1 -35 -11 -33 -10 2
-17 16 -19 36 -2 20 -8 32 -15 29 -7 -2 -11 -15 -9 -30 4 -30 -26 -44 -58 -27
-29 16 -25 31 8 25 27 -5 27 -5 2 5 -13 6 -28 16 -32 23 -4 7 -8 -2 -8 -20 0
-37 -6 -40 -32 -16 -17 15 -18 15 -18 0 0 -10 -7 -17 -15 -17 -11 0 -15 12
-15 45 0 50 12 56 42 23z m-4099 -80 c4 -10 8 -9 16 2 8 12 14 13 30 3 11 -7
22 -9 25 -4 8 12 139 11 154 -2 10 -8 16 -7 21 2 9 14 89 12 98 -2 3 -6 6 -19
7 -31 1 -14 9 -22 23 -24 14 -2 20 -8 17 -17 -6 -15 -140 -19 -149 -4 -3 4
-17 4 -32 -2 -28 -10 -63 -4 -63 12 0 6 -7 3 -16 -6 -11 -11 -24 -14 -38 -10
-12 4 -30 8 -41 8 -11 1 -25 5 -30 9 -6 4 -17 3 -25 -3 -29 -18 -40 -10 -40
29 0 21 3 42 7 45 11 11 31 8 36 -5z m492 2 c4 -7 12 -7 25 0 26 14 46 12 63
-5 13 -13 16 -13 27 0 16 19 39 19 61 -1 16 -14 20 -14 39 -1 26 18 71 10 77
-14 7 -24 19 -24 26 -1 6 26 46 32 206 32 179 0 181 -1 181 -56 0 -44 0 -44
-35 -44 -22 0 -33 4 -31 13 1 6 1 9 -1 5 -3 -5 -13 -8 -23 -8 -10 0 -21 -4
-25 -10 -3 -5 -12 -7 -20 -4 -8 4 -13 10 -10 14 3 5 -4 6 -15 3 -11 -3 -23 -9
-25 -14 -3 -4 -21 -1 -40 7 -21 8 -35 10 -35 4 0 -6 -20 -9 -47 -8 -46 3 -48
4 -46 31 2 36 -10 35 -24 -3 -12 -32 -43 -41 -43 -13 0 14 -2 14 -21 -2 -16
-16 -25 -17 -48 -8 -17 6 -35 7 -42 2 -22 -14 -59 -10 -65 6 -5 13 -8 13 -21
0 -17 -17 -59 -20 -68 -5 -5 8 -11 7 -21 -1 -8 -6 -25 -8 -39 -5 -45 11 -30
96 16 96 10 0 21 -5 24 -10z m3148 -57 l16 -38 0 38 c1 48 24 46 29 -2 3 -27
7 -32 25 -29 17 2 21 9 19 30 -4 31 10 42 44 34 18 -5 24 -13 24 -34 1 -24 2
-25 11 -9 8 14 18 17 40 12 25 -6 29 -4 29 14 0 20 4 21 166 17 119 -2 168 -7
174 -16 5 -8 9 -9 14 -1 12 19 54 12 70 -11 l16 -22 0 22 c0 28 23 28 44 0 9
-14 15 -17 14 -8 -5 29 17 21 23 -9 9 -43 -5 -60 -30 -37 -19 17 -21 17 -21 3
0 -10 -7 -17 -15 -17 -8 0 -15 8 -15 17 0 16 -1 16 -13 -1 -12 -17 -83 -33
-72 -16 3 5 1 11 -5 15 -5 3 -10 -1 -10 -11 0 -15 -8 -16 -61 -10 -34 3 -111
6 -170 6 -90 0 -109 3 -109 15 0 20 -53 20 -85 -1 -17 -11 -29 -13 -41 -6 -11
6 -27 6 -45 0 -21 -7 -37 -5 -65 8 -28 13 -39 15 -42 6 -2 -7 -8 -12 -14 -12
-13 0 -3 57 13 77 18 20 26 16 42 -24z m-2878 -104 l0 -54 -108 -1 c-92 -1
-107 1 -102 14 5 13 3 13 -11 1 -18 -15 -234 -23 -234 -9 0 8 -13 8 -40 -3
-14 -5 -50 -5 -147 1 -32 2 -33 3 -33 47 0 30 5 47 16 53 8 5 160 8 337 7
l322 -2 0 -54z m-866 34 c10 -17 10 -17 11 0 0 9 7 17 15 17 8 0 15 -7 15 -17
0 -15 1 -15 18 0 36 33 82 15 82 -31 0 -13 4 -21 9 -17 14 8 21 -9 11 -25 -7
-11 -11 -11 -23 -1 -10 8 -17 9 -22 1 -3 -5 -17 -10 -30 -10 -13 0 -27 5 -30
10 -5 8 -11 7 -21 -1 -11 -9 -18 -8 -33 5 -16 15 -19 15 -24 1 -4 -8 -11 -15
-17 -15 -11 0 -14 83 -3 93 12 12 32 7 42 -10z m3792 -23 c41 0 62 -18 57 -51
-8 -52 -88 -47 -88 6 0 37 -18 31 -22 -7 -4 -42 -22 -43 -26 -1 -3 29 -6 31
-40 31 -36 -1 -36 -1 -9 -10 35 -12 37 -45 2 -54 -15 -4 -32 -1 -40 6 -23 19
-18 31 13 25 l27 -5 -27 11 c-29 11 -38 44 -15 52 6 2 39 2 72 0 33 -2 76 -3
96 -3z m574 -11 c3 -4 7 -26 8 -49 l2 -42 -149 1 c-82 1 -153 4 -158 7 -4 3
-11 -1 -14 -9 -3 -10 -17 -13 -46 -11 -40 4 -67 14 -35 14 12 0 15 7 10 35
-11 68 -14 67 191 63 101 -2 187 -6 191 -9z"/>
<path d="M3694 2356 c-18 -14 -19 -30 -21 -303 -3 -298 1 -334 39 -341 8 -2
23 4 32 14 15 15 17 48 14 320 -3 258 -5 306 -18 314 -20 13 -23 12 -46 -4z"/>
<path d="M4850 2325 c-6 -7 -8 -38 -6 -69 3 -44 13 -72 45 -126 23 -39 45 -70
50 -70 6 0 36 35 83 96 6 8 -5 11 -39 10 l-48 -1 -6 67 c-6 69 -24 105 -54
105 -9 0 -20 -6 -25 -12z"/>
<path d="M4767 1581 c-54 -57 -173 -205 -179 -221 -4 -13 80 -90 99 -90 9 0
244 342 239 347 -2 2 -15 -2 -30 -8 -19 -9 -35 -9 -60 -2 -32 10 -36 8 -69
-26z"/>
<path d="M3930 140 c-41 -21 -120 -104 -120 -125 0 -28 28 -15 35 15 9 40 26
38 20 -2 -4 -29 -3 -28 8 7 6 22 16 46 20 53 9 13 31 6 22 -8 -9 -15 114 -80
153 -80 28 0 33 3 24 12 -17 17 -15 65 4 72 31 12 36 6 32 -39 -3 -42 -1 -45
21 -45 21 0 23 3 17 31 -20 100 -145 158 -236 109z"/>
</g>
</svg>
